SplineFontDB: 3.2
FontName: abc2svg
FullName: abc2svg
FamilyName: abc2svg
Weight: Regular
Copyright: Copyright \\251 2018-2019 Jean-Francois Moine. This font is licensed under the SIL Open Font License \\(http://scripts.sil.org/OFL\\).
Version: 
ItalicAngle: 0
UnderlinePosition: 0
UnderlineWidth: 0
Ascent: 819
Descent: 205
InvalidEm: 0
LayerCount: 2
Layer: 0 1 "Back" 1
Layer: 1 0 "Fore" 0
XUID: [1021 296 1430826605 13506888]
OS2Version: 0
OS2_WeightWidthSlopeOnly: 0
OS2_UseTypoMetrics: 0
CreationTime: 1433498007
ModificationTime: 1572276737
PfmFamily: 17
TTFWeight: 400
TTFWidth: 5
LineGap: 92
VLineGap: 92
Panose: 2 0 5 3 0 0 0 0 0 0
OS2TypoAscent: 0
OS2TypoAOffset: 1
OS2TypoDescent: 0
OS2TypoDOffset: 1
OS2TypoLinegap: 92
OS2WinAscent: 0
OS2WinAOffset: 1
OS2WinDescent: 0
OS2WinDOffset: 1
HheadAscent: 0
HheadAOffset: 1
HheadDescent: 0
HheadDOffset: 1
OS2Vendor: 'PfEd'
MarkAttachClasses: 1
DEI: 91125
LangName: 1033
Encoding: Custom
Compacted: 1
UnicodeInterp: none
NameList: Adobe Glyph List
DisplaySize: -96
AntiAlias: 1
FitToEm: 1
WinInfo: 128 8 2
BeginPrivate: 0
EndPrivate
TeXData: 1 0 0 346030 173015 115343 0 1048576 115343 783286 444596 497025 792723 393216 433062 380633 303038 157286 324010 404750 52429 2506097 1059062 262144
BeginChars: 143 143

StartChar: .nodef
Encoding: 0 0 0
Width: 400
Flags: M
LayerCount: 2
Fore
SplineSet
0 0 m 1
 0 400 l 1
 401 400 l 1
 401 0 l 1
 0 0 l 1
EndSplineSet
Validated: 1
EndChar

StartChar: space
Encoding: 1 32 1
Width: 600
Flags: HM
LayerCount: 2
Fore
SplineSet
0 0 m 1053
EndSplineSet
Validated: 1
EndChar

StartChar: uniE000
Encoding: 2 57344 2
Width: 87
Flags: MW
LayerCount: 2
Fore
SplineSet
0 515 m 9
 0 517 l 1
 35 533 53 565 53 608 c 0
 53 642 42 692 18 758 c 0
 5 799 0 834 0 867 c 0
 0 936 29 988 87 1027 c 1
 43 992 24 950 24 902 c 0
 24 876 32 846 45 811 c 0
 72 740 82 681 82 637 c 0
 82 575 56 532 5 516 c 1
 57 500 82 453 82 390 c 0
 82 344 72 288 45 218 c 0
 32 183 24 150 24 124 c 0
 24 76 43 35 87 0 c 1
 29 39 0 91 0 160 c 0
 0 193 5 228 18 269 c 0
 42 335 53 385 53 419 c 0
 53 463 35 499 0 515 c 9
EndSplineSet
Validated: 1
EndChar

StartChar: uniE022
Encoding: 3 57378 3
Width: 330
Flags: MW
LayerCount: 2
Fore
SplineSet
-80 20 m 5
 410 20 l 5
 410 -20 l 5
 -80 -20 l 5
 -80 20 l 5
EndSplineSet
Validated: 1
EndChar

StartChar: uniE023
Encoding: 4 57379 4
Width: 531
Flags: MW
LayerCount: 2
Fore
SplineSet
-80 20 m 1
 610 20 l 5
 610 -20 l 1
 -80 -20 l 1
 -80 20 l 1
EndSplineSet
Validated: 1
EndChar

StartChar: uniE024
Encoding: 5 57380 5
Width: 210
Flags: HMW
LayerCount: 2
Fore
SplineSet
-80 20 m 1
 290 20 l 1
 290 -20 l 1
 -80 -20 l 1
 -80 20 l 1
EndSplineSet
Validated: 1
EndChar

StartChar: uniE030
Encoding: 6 57392 6
Width: 35
Flags: HMW
LayerCount: 2
Fore
SplineSet
0 1000 m 5
 35 1000 l 5
 35 0 l 5
 0 0 l 5
 0 1000 l 5
EndSplineSet
Validated: 1
EndChar

StartChar: uniE038
Encoding: 7 57400 7
Width: 35
Flags: HMW
LayerCount: 2
Fore
SplineSet
0 1000 m 1
 35 1000 l 1
 35 500 l 1
 0 500 l 1
 0 1000 l 1
EndSplineSet
Validated: 1
EndChar

StartChar: uniE039
Encoding: 8 57401 8
Width: 35
Flags: HMW
LayerCount: 2
Fore
SplineSet
0 1100 m 1
 35 1110 l 5
 35 760 l 1
 0 760 l 1
 0 1100 l 1
EndSplineSet
Validated: 1
EndChar

StartChar: uniE043
Encoding: 9 57411 9
Width: 100
Flags: MW
LayerCount: 2
Fore
SplineSet
50 570 m 3
 22 570 0 592 0 620 c 3
 0 648 22 670 50 670 c 3
 78 670 100 648 100 620 c 3
 100 592 78 570 50 570 c 3
50 320 m 7
 22 320 0 342 0 370 c 7
 0 398 22 420 50 420 c 7
 78 420 100 398 100 370 c 7
 100 342 78 320 50 320 c 7
EndSplineSet
Validated: 1
EndChar

StartChar: uniE045
Encoding: 10 57413 10
Width: 1059
Flags: HMW
LayerCount: 2
Fore
SplineSet
590 0 m 24
 590 160 l 24
 620 160 l 0
 647 83 701 25 770 25 c 0
 818 25 870 42 870 90 c 0
 870 135 766 163 722 175 c 0
 661 192 590 212 590 286 c 0
 590 380 665 430 740 430 c 0
 791 430 809 423 840 405 c 0
 870 430 l 24
 900 430 l 24
 907 275 l 24
 877 275 l 0
 857 351 806 405 740 405 c 0
 702 405 652 376 652 338 c 0
 652 285 733 277 785 263 c 0
 878 238 940 209 940 136 c 0
 940 62 879 0 770 0 c 0
 718 0 688 9 655 32 c 0
 620 0 l 24
 590 0 l 24
1010 0 m 3
 982 0 960 22 960 50 c 3
 960 78 982 100 1010 100 c 3
 1038 100 1060 78 1060 50 c 3
 1060 22 1038 0 1010 0 c 3
505 0 m 3
 477 0 455 22 455 50 c 3
 455 78 477 100 505 100 c 3
 533 100 555 78 555 50 c 3
 555 22 533 0 505 0 c 3
180 390 m 24
 180 30 l 24
 220 30 l 0
 300 30 350 100 350 210 c 0
 350 320 300 390 220 390 c 0
 180 390 l 24
0 0 m 0
 0 30 l 24
 70 30 l 24
 70 390 l 24
 0 390 l 24
 0 420 l 24
 220 420 l 0
 360 420 470 361 470 210 c 0
 470 60 370 0 220 0 c 0
 147 0 73 0 0 0 c 0
EndSplineSet
Validated: 1
EndChar

StartChar: uniE046
Encoding: 11 57414 11
Width: 1061
Flags: HMW
LayerCount: 2
Fore
SplineSet
770 0 m 0
 636 0 550 70 550 210 c 0
 550 350 656 430 770 430 c 0
 818 430 838 425 875 400 c 0
 905 430 l 24
 935 430 l 24
 943 264 l 24
 910 260 l 0
 886 354 841 400 780 400 c 0
 700 400 670 305 670 215 c 0
 670 125 700 30 780 30 c 0
 855 30 906 86 928 165 c 0
 963 155 l 0
 939 65 890 0 770 0 c 0
1010 0 m 3
 982 0 960 22 960 50 c 3
 960 78 982 100 1010 100 c 3
 1038 100 1060 78 1060 50 c 3
 1060 22 1038 0 1010 0 c 3
505 0 m 3
 477 0 455 22 455 50 c 3
 455 78 477 100 505 100 c 3
 533 100 555 78 555 50 c 3
 555 22 533 0 505 0 c 3
180 390 m 24
 180 30 l 24
 220 30 l 0
 300 30 350 100 350 210 c 0
 350 320 300 390 220 390 c 0
 180 390 l 24
0 0 m 0
 0 30 l 24
 70 30 l 24
 70 390 l 24
 0 390 l 24
 0 420 l 24
 220 420 l 0
 360 420 470 361 470 210 c 0
 470 60 370 0 220 0 c 0
 147 0 73 0 0 0 c 0
EndSplineSet
Validated: 1
EndChar

StartChar: uniE047
Encoding: 12 57415 12
Width: 480
Flags: HMW
LayerCount: 2
Fore
SplineSet
398 338 m 3
 376 338 358 356 358 378 c 3
 358 400 376 418 398 418 c 3
 420 418 438 400 438 378 c 3
 438 356 420 338 398 338 c 3
36 278 m 3
 14 278 -4 296 -4 318 c 3
 -4 340 14 358 36 358 c 3
 58 358 76 340 76 318 c 3
 76 296 58 278 36 278 c 3
167 91 m 0
 167 114 186 137 214 137 c 0
 240 137 263 116 263 94 c 0
 263 78 251 61 219 51 c 1
 235 35 259 28 283 28 c 0
 331 28 375 59 375 111 c 0
 375 135 369 162 337 194 c 1
 214 295 l 1
 7 5 l 1
 -36 37 l 1
 173 330 l 1
 47 429 11 500 11 570 c 0
 11 618 54 651 78 671 c 1
 110 687 139 690 167 690 c 0
 235 690 271 641 271 601 c 0
 271 578 252 555 224 555 c 0
 198 555 175 576 175 598 c 0
 175 614 187 631 219 641 c 1
 203 657 179 664 155 664 c 0
 107 664 63 633 63 581 c 0
 63 557 69 530 101 498 c 1
 223 397 l 1
 435 691 l 1
 478 660 l 1
 265 363 l 1
 391 263 427 192 427 122 c 0
 427 74 384 41 360 21 c 1
 328 5 299 2 271 2 c 0
 203 2 167 51 167 91 c 0
EndSplineSet
Validated: 1
EndChar

StartChar: uniE048
Encoding: 13 57416 13
Width: 862
Flags: MW
LayerCount: 2
Fore
SplineSet
472 596 m 1
 512 596 l 1
 512 459 l 1
 625 448 715 344 724 216 c 1
 862 216 l 1
 862 176 l 1
 724 176 l 1
 715 48 625 -56 512 -67 c 1
 512 -204 l 1
 472 -204 l 1
 472 -67 l 1
 359 -56 269 48 260 176 c 1
 122 176 l 1
 122 216 l 1
 260 216 l 1
 269 348 359 448 472 459 c 1
 472 596 l 1
472 176 m 1
 360 176 l 1
 364 35 412 -16 472 -24 c 1
 472 176 l 1
512 176 m 1
 512 -24 l 1
 572 -16 620 35 624 176 c 1
 512 176 l 1
512 216 m 1
 624 216 l 1
 620 358 572 408 512 416 c 1
 512 216 l 1
472 216 m 1
 472 417 l 1
 412 409 364 361 360 216 c 1
 472 216 l 1
EndSplineSet
Validated: 1
EndChar

StartChar: uniE050
Encoding: 14 57424 14
Width: 779
Flags: HMW
LayerCount: 2
Fore
SplineSet
364 851 m 0
 359 812 357 782 357 751 c 0
 357 716 359 680 362 626 c 1
 443 681 551 791 551 896 c 0
 551 942 546 1011 497 1023 c 1
 417 1013 376 939 364 851 c 0
449 -250 m 9
 472 -486 l 0
 472 -487 472 -488 472 -489 c 0
 472 -586 423 -657 316 -657 c 0
 204 -657 139 -593 139 -509 c 0
 139 -452 184 -392 253 -392 c 0
 315 -392 365 -436 365 -495 c 0
 365 -554 317 -594 255 -595 c 1
 275 -606 298 -620 324 -620 c 0
 377 -620 435 -592 435 -490 c 0
 435 -489 435 -488 435 -487 c 0
 412 -254 l 17
 398 -255 385 -256 371 -256 c 0
 176 -256 0 -116 0 100 c 0
 0 188 25 277 58 335 c 8
 131 463 275 562 326 600 c 1
 317 704 313 787 313 852 c 0
 313 1052 406 1152 494 1160 c 1
 570 1115 592 1005 592 873 c 0
 592 688 538 598 379 473 c 1
 399 266 l 0
 409 267 420 268 430 268 c 0
 585 268 679 145 679 -3 c 0
 679 -124 618 -220 449 -250 c 9
601 -23 m 0
 601 52 536 141 423 141 c 0
 419 141 416 140 412 140 c 1
 445 -215 l 1
 575 -189 601 -121 601 -23 c 0
375 138 m 1
 306 124 251 75 251 8 c 0
 251 -35 281 -84 319 -108 c 1
 246 -91 195 -56 195 46 c 0
 195 176 270 236 361 261 c 1
 344 450 l 1
 164 306 93 226 92 82 c 1
 95 -111 219 -222 376 -222 c 0
 387 -222 397 -221 408 -220 c 0
 375 138 l 1
EndSplineSet
Validated: 1
EndChar

StartChar: uniE05C
Encoding: 15 57436 15
Width: 722
Flags: MW
LayerCount: 2
Fore
SplineSet
478 -480 m 0
 567 -480 614 -375 614 -286 c 0
 614 -257 610 -227 601 -196 c 0
 584 -125 550 -88 502 -88 c 0
 443 -88 395 -133 372 -161 c 1
 367 -172 361 -189 350 -217 c 1
 328 -153 309 -108 290 -80 c 0
 271 -52 246 -27 214 -6 c 1
 214 -514 l 1
 186 -514 l 1
 186 510 l 1
 214 510 l 1
 214 15 l 1
 246 36 271 61 290 89 c 0
 309 117 328 162 350 226 c 1
 374 182 385 139 428 112 c 0
 444 101 474 85 504 85 c 0
 575 85 614 197 614 274 c 0
 614 309 607 344 596 377 c 0
 572 443 534 475 478 475 c 0
 438 475 414 466 382 449 c 1
 416 438 436 421 445 393 c 0
 445 387 447 381 447 373 c 0
 447 332 406 300 363 300 c 2
 358 300 l 1
 312 317 290 342 290 375 c 0
 290 385 290 395 295 406 c 0
 312 451 348 482 406 499 c 0
 430 507 456 512 480 512 c 0
 543 512 602 486 659 433 c 0
 697 397 717 350 722 298 c 0
 722 292 722 286 722 280 c 0
 722 171 650 98 560 63 c 0
 536 53 512 50 484 50 c 0
 450 50 410 58 369 73 c 1
 335 -2 l 1
 369 -76 l 1
 410 -61 450 -53 484 -53 c 0
 579 -53 647 -108 682 -159 c 0
 708 -196 722 -236 722 -283 c 0
 722 -289 722 -295 722 -301 c 0
 717 -353 697 -400 659 -436 c 0
 602 -489 543 -516 480 -516 c 0
 383 -516 290 -460 290 -378 c 0
 290 -345 312 -320 358 -303 c 1
 363 -303 l 2
 406 -303 447 -335 447 -376 c 0
 447 -384 445 -390 445 -398 c 1
 436 -421 416 -441 382 -452 c 1
 418 -471 450 -480 478 -480 c 0
0 510 m 1
 123 510 l 1
 123 -514 l 1
 0 -514 l 1
 0 510 l 1
EndSplineSet
Validated: 1
EndChar

StartChar: uniE062
Encoding: 16 57442 16
Width: 703
Flags: HMW
LayerCount: 2
Fore
SplineSet
19 29 m 0
 19 161 125 255 261 255 c 0
 378 255 440 220 496 146 c 0
 528 104 543 31 543 -30 c 0
 543 -193 505 -313 388 -422 c 24
 246 -555 118 -593 -70 -603 c 1
 72 -565 189 -512 292 -409 c 0
 358 -343 387 -287 412 -181 c 0
 421 -142 422 -69 422 -36 c 0
 422 48 418 100 376 150 c 0
 339 194 314 207 245 207 c 0
 168 207 97 154 67 58 c 1
 97 96 116 111 153 111 c 0
 214 111 260 62 260 -1 c 0
 260 -33 248 -61 221 -83 c 1
 198 -104 166 -113 139 -113 c 0
 71 -113 19 -52 19 29 c 0
661 -170 m 0
 632 -170 610 -150 610 -119 c 0
 610 -90 629 -69 656 -69 c 0
 683 -69 707 -90 707 -119 c 0
 707 -148 687 -170 661 -170 c 0
655 72 m 0
 625 72 605 94 605 127 c 0
 605 156 626 174 654 174 c 0
 681 174 702 153 702 127 c 0
 702 94 682 72 655 72 c 0
EndSplineSet
Validated: 1
EndChar

StartChar: uniE069
Encoding: 17 57449 17
Width: 470
Flags: W
VStem: 0 150<-250 250> 220 150<-250 250>
LayerCount: 2
Fore
SplineSet
220 250 m 1
 368 250 l 1
 370 -250 l 1
 220 -250 l 1
 220 250 l 1
0 250 m 1
 148 250 l 1
 150 -250 l 1
 0 -250 l 1
 0 250 l 1
EndSplineSet
Validated: 1
EndChar

StartChar: uniE07A
Encoding: 18 57466 18
Width: 779
Flags: MW
LayerCount: 2
Fore
SplineSet
329 117 m 1
 329 117 348 -79 354 -170 c 1
 464 -145 502 -83 502 -22 c 0
 502 46 442 118 350 118 c 0
 343 118 336 118 329 117 c 1
323 -170 m 2
 323 -170 299 97 298 113 c 1
 243 102 197 67 197 13 c 0
 197 -13 207 -40 228 -66 c 1
 188 -44 154 0 154 58 c 0
 154 137 216 188 289 208 c 1
 284 266 280 308 275 360 c 1
 131 245 77 181 76 66 c 1
 82 -68 133 -173 320 -173 c 0
 323 -173 323 -172 323 -170 c 2
357 -199 m 1
 363 -271 369 -330 370 -341 c 0
 371 -351 370 -359 370 -368 c 0
 370 -370 370 -373 370 -375 c 0
 370 -462 329 -502 248 -502 c 0
 178 -502 111 -448 111 -381 c 0
 111 -335 147 -294 202 -294 c 0
 252 -294 292 -338 292 -385 c 0
 292 -432 254 -459 204 -460 c 1
 220 -469 238 -472 259 -472 c 0
 303 -472 338 -442 338 -368 c 0
 338 -361 338 -353 337 -344 c 2
 324 -203 l 1
 315 -204 303 -204 294 -204 c 0
 108 -204 0 -105 0 80 c 0
 0 150 20 221 46 267 c 1
 67 308 132 372 166 399 c 0
 185 415 222 451 263 481 c 1
 257 564 249 630 249 682 c 0
 249 842 328 916 402 938 c 1
 470 864 474 804 474 698 c 0
 474 550 431 478 304 378 c 1
 309 324 311 278 318 215 c 1
 327 216 335 217 344 217 c 0
 398 217 453 197 493 150 c 1
 534 106 543 55 543 -2 c 0
 543 -76 514 -135 444 -169 c 1
 414 -184 391 -196 357 -199 c 1
290 658 m 0
 288 638 287 615 287 594 c 0
 287 552 291 513 293 501 c 1
 358 545 442 639 442 712 c 0
 442 749 433 790 401 820 c 1
 331 792 299 728 290 658 c 0
EndSplineSet
Validated: 1
EndChar

StartChar: uniE07B
Encoding: 19 57467 19
Width: 782
Flags: MW
LayerCount: 2
Fore
SplineSet
382 -384 m 0
 453 -384 491 -300 491 -229 c 0
 491 -206 488 -182 481 -157 c 0
 467 -100 440 -70 402 -70 c 0
 355 -70 316 -107 298 -129 c 1
 294 -138 289 -152 280 -174 c 1
 262 -123 247 -86 232 -64 c 0
 217 -42 197 -22 171 -5 c 1
 171 -411 l 1
 149 -411 l 1
 149 408 l 1
 171 408 l 1
 171 12 l 1
 197 29 217 49 232 71 c 0
 247 93 262 130 280 181 c 1
 299 146 308 112 342 90 c 0
 355 81 379 68 403 68 c 0
 460 68 491 157 491 219 c 0
 491 247 486 276 477 302 c 0
 458 355 427 380 382 380 c 0
 350 380 332 373 306 359 c 1
 333 350 349 336 356 314 c 0
 356 309 358 304 358 298 c 0
 358 265 324 240 290 240 c 2
 286 240 l 1
 249 254 232 274 232 300 c 0
 232 308 232 316 236 325 c 0
 250 361 279 385 325 399 c 0
 344 405 365 410 384 410 c 0
 434 410 481 388 527 346 c 0
 557 317 574 280 578 238 c 0
 578 233 578 229 578 224 c 0
 578 137 520 78 448 50 c 0
 429 42 409 40 387 40 c 0
 360 40 328 46 295 58 c 1
 268 -2 l 1
 295 -61 l 1
 328 -49 360 -42 387 -42 c 0
 463 -42 518 -86 546 -127 c 0
 567 -157 578 -188 578 -226 c 0
 578 -231 578 -236 578 -241 c 0
 574 -283 557 -320 527 -349 c 0
 481 -391 434 -413 384 -413 c 0
 306 -413 232 -368 232 -302 c 0
 232 -276 249 -256 286 -242 c 1
 290 -242 l 2
 324 -242 358 -268 358 -301 c 0
 358 -307 356 -312 356 -318 c 1
 349 -336 333 -353 306 -362 c 1
 335 -377 360 -384 382 -384 c 0
0 408 m 1
 98 408 l 1
 98 -411 l 1
 0 -411 l 1
 0 408 l 1
EndSplineSet
Validated: 1
EndChar

StartChar: uniE07C
Encoding: 20 57468 20
Width: 807
Flags: MW
LayerCount: 2
Fore
SplineSet
15 33 m 0
 15 139 104 204 209 204 c 0
 299 204 358 176 399 117 c 0
 423 82 434 25 434 -24 c 0
 434 -154 394 -258 314 -330 c 1
 233 -401 94 -474 -56 -482 c 1
 58 -452 160 -406 230 -331 c 1
 278 -281 313 -202 331 -117 c 0
 337 -86 340 -55 340 -29 c 0
 340 38 325 90 295 124 c 1
 262 160 236 170 194 170 c 0
 133 170 68 125 54 50 c 1
 78 80 86 86 116 86 c 0
 165 86 210 38 210 -12 c 0
 210 -38 200 -60 178 -78 c 1
 160 -95 138 -102 116 -102 c 0
 54 -102 15 -32 15 33 c 0
529 -136 m 0
 506 -136 488 -120 488 -95 c 0
 488 -72 502 -55 525 -55 c 0
 547 -55 566 -72 566 -95 c 0
 566 -118 550 -136 529 -136 c 0
524 58 m 0
 500 58 484 76 484 102 c 0
 484 125 499 139 523 139 c 0
 545 139 562 123 562 102 c 0
 562 76 546 58 524 58 c 0
EndSplineSet
Validated: 1
EndChar

StartChar: uniE07D
Encoding: 21 57469 21
Width: 200
Flags: HMW
LayerCount: 2
Fore
SplineSet
80 119 m 1
 55 105 45 90 45 70 c 0
 45 42 68 20 88 20 c 0
 113 20 125 44 125 64 c 0
 125 84 103 102 80 119 c 1
123 220 m 28
 105 220 90 209 90 189 c 0
 90 169 99 159 122 141 c 1
 145 148 157 161 157 185 c 0
 157 205 144 220 123 220 c 28
90 0 m 0
 41 0 0 30 0 70 c 0
 0 104 32 118 69 130 c 1
 49 148 40 157 40 180 c 0
 40 215 70 240 110 240 c 0
 154 240 200 220 200 180 c 0
 200 156 178 139 140 129 c 1
 164 110 180 90 180 70 c 0
 180 27 140 0 90 0 c 0
EndSplineSet
Validated: 1
EndChar

StartChar: uniE080
Encoding: 22 57472 22
Width: 430
Flags: HMW
LayerCount: 2
Fore
SplineSet
138 0 m 1
 138 -130 168 -218 215 -218 c 1
 260 -218 292 -130 292 0 c 1
 292 130 268 218 215 218 c 1
 165 218 138 130 138 0 c 1
0 3 m 1
 0 140 95 250 215 250 c 1
 335 250 430 140 430 0 c 1
 430 -140 335 -250 215 -250 c 1
 95 -250 0 -140 0 3 c 1
EndSplineSet
Validated: 1
EndChar

StartChar: uniE081
Encoding: 23 57473 23
Width: 290
Flags: HMW
LayerCount: 2
Fore
SplineSet
0 0 m 25
 100 250 l 25
 225 250 l 25
 225 -200 l 25
 290 -230 l 25
 290 -250 l 25
 50 -250 l 25
 50 -230 l 25
 115 -200 l 29
 115 100 l 29
 0 0 l 25
EndSplineSet
Validated: 1
EndChar

StartChar: uniE082
Encoding: 24 57474 24
Width: 400
Flags: HMW
HStem: -250 500
VStem: 0 400
LayerCount: 2
Fore
SplineSet
199 250 m 0
 335 250 399 208 399 124 c 0
 399 112 398 95 394 84 c 0
 357 -12 263 3 98 -137 c 1
 114 -127 132 -125 149 -125 c 0
 204 -125 248 -160 304 -160 c 0
 321 -160 341 -154 358 -146 c 0
 370 -140 390 -119 392 -119 c 1
 390 -131 382 -162 380 -171 c 0
 378 -182 369 -215 357 -226 c 0
 341 -241 318 -250 290 -250 c 0
 240 -250 171 -212 127 -211 c 1
 75 -211 22 -249 8 -249 c 0
 3 -249 1 -245 1 -233 c 0
 1 -232 -0 -231 0 -230 c 0
 10 -88 279 13 279 118 c 0
 279 180 252 216 196 217 c 0
 145 217 110 201 92 164 c 1
 128 164 161 138 161 97 c 0
 161 53 113 25 76 25 c 0
 28 25 0 60 0 128 c 0
 0 213 102 250 199 250 c 0
EndSplineSet
Validated: 1
EndChar

StartChar: uniE083
Encoding: 25 57475 25
Width: 380
Flags: HMW
HStem: -250 500
LayerCount: 2
Fore
SplineSet
102 170 m 1
 138 170 163 150 163 119 c 0
 163 83 136 57 91 57 c 0
 59 57 14 85 14 135 c 0
 14 160 26 192 45 208 c 0
 80 237 138 250 185 250 c 0
 233 250 269 243 293 231 c 0
 333 211 361 174 361 125 c 0
 361 65 312 15 230 0 c 1
 312 -14 373 -65 373 -125 c 0
 373 -174 338 -210 298 -231 c 0
 275 -243 233 -250 185 -250 c 0
 138 -250 70 -237 35 -208 c 0
 16 -192 0 -166 0 -141 c 0
 0 -87 43 -57 82 -57 c 0
 127 -57 158 -81 158 -117 c 0
 158 -152 129 -172 94 -172 c 1
 101 -195 125 -213 169 -213 c 0
 217 -213 248 -177 248 -125 c 0
 248 -72 186 -31 130 -21 c 0
 115 -18 108 -10 108 0 c 0
 108 10 115 18 130 21 c 0
 185 31 252 68 252 125 c 0
 252 177 223 213 175 213 c 0
 131 213 109 193 102 170 c 1
EndSplineSet
Validated: 1
EndChar

StartChar: uniE084
Encoding: 26 57476 26
Width: 400
Flags: HMW
HStem: -250 500
VStem: 0 400
LayerCount: 2
Fore
SplineSet
325 -209 m 5
 375 -250 l 5
 175 -250 l 5
 225 -209 l 5
 225 -160 l 5
 0 -160 l 25
 0 -120 l 17
 73 0 147 146 147 250 c 9
 310 250 l 1
 49 -120 l 9
 225 -120 l 29
 226 30 l 29
 325 175 l 5
 325 -120 l 5
 400 -120 l 25
 400 -160 l 25
 325 -160 l 5
 325 -209 l 5
EndSplineSet
Validated: 1
EndChar

StartChar: uniE085
Encoding: 27 57477 27
Width: 400
Flags: HMW
HStem: -250 500
LayerCount: 2
Fore
SplineSet
18 -95 m 0
 31 -80 53 -63 79 -63 c 0
 113 -63 148 -86 148 -118 c 0
 148 -155 125 -178 88 -178 c 1
 104 -198 126 -211 150 -211 c 0
 175 -211 204 -206 227 -181 c 0
 253 -153 255 -138 255 -98 c 0
 255 -60 250 -36 225 -13 c 0
 209 2 183 13 157 13 c 0
 95 13 48 -10 7 -40 c 9
 17 250 l 1
 371 250 l 1
 359 209 324 156 270 156 c 9
 57 156 l 1
 51 35 l 17
 93 57 122 65 174 65 c 0
 227 65 276 53 306 34 c 0
 347 8 382 -37 382 -89 c 0
 382 -136 363 -181 315 -215 c 0
 267 -249 203 -249 149 -249 c 0
 111 -249 74 -242 46 -229 c 1
 25 -217 0 -176 0 -152 c 0
 0 -135 3 -113 18 -95 c 0
EndSplineSet
Validated: 1
EndChar

StartChar: uniE086
Encoding: 28 57478 28
Width: 385
Flags: HMW
HStem: -250 500
LayerCount: 2
Fore
SplineSet
200 -210 m 0
 259 -210 286 -150 286 -97 c 0
 286 -55 260 -15 204 -15 c 0
 165 -15 138 -32 112 -52 c 1
 115 -119 127 -210 200 -210 c 0
340 205 m 0
 360 186 367 158 367 141 c 0
 367 108 340 76 308 76 c 1
 269 76 244 97 244 133 c 0
 244 146 263 175 287 175 c 1
 270 202 244 210 210 210 c 0
 135 210 110 110 110 -5 c 1
 144 13 167 25 230 25 c 1
 334 25 385 -24 385 -93 c 0
 385 -187 292 -250 200 -250 c 0
 70 -250 1 -159 0 0 c 1
 1 133 74 250 200 250 c 0
 257 250 298 244 340 205 c 0
EndSplineSet
Validated: 1
EndChar

StartChar: uniE087
Encoding: 29 57479 29
Width: 400
Flags: HMW
HStem: -250 500
LayerCount: 2
Fore
SplineSet
97 161 m 0
 29 161 27 136 0 100 c 1
 10 216 l 17
 33 237 43 251 99 251 c 0
 189 251 224 213 298 213 c 0
 334 213 379 232 400 250 c 1
 281 -50 240 -105 240 -250 c 9
 110 -250 l 5
 111 -145 102 -139 315 131 c 5
 305 125 280 121 268 121 c 0
 194 121 173 161 97 161 c 0
EndSplineSet
Validated: 1
EndChar

StartChar: uniE088
Encoding: 30 57480 30
Width: 400
Flags: HMW
HStem: -250 500
LayerCount: 2
Fore
SplineSet
154 -42 m 1
 89 -72 56 -91 56 -130 c 1
 56 -170 133 -207 188 -207 c 1
 243 -207 293 -177 293 -135 c 1
 293 -85 218 -71 154 -42 c 1
230 42 m 1
 295 75 316 91 316 130 c 1
 316 169 262 207 207 207 c 1
 152 207 115 178 115 135 c 1
 116 83 168 71 230 42 c 1
108 -16 m 1
 44 15 18 48 18 121 c 4
 18 187 94 249 194 250 c 1
 294 250 370 197 370 130 c 0
 370 77 342 46 280 16 c 1
 351 -16 388 -46 388 -121 c 4
 388 -197 293 -250 194 -250 c 1
 93 -250 0 -194 0 -130 c 0
 0 -77 50 -44 108 -16 c 1
EndSplineSet
Validated: 1
EndChar

StartChar: uniE089
Encoding: 31 57481 31
Width: 385
Flags: HMW
HStem: -250 500
LayerCount: 2
Fore
SplineSet
185 210 m 0
 126 210 99 150 99 97 c 0
 99 55 125 15 181 15 c 0
 220 15 247 32 273 52 c 1
 270 119 258 210 185 210 c 0
45 -205 m 0
 25 -186 18 -158 18 -141 c 0
 18 -108 45 -76 77 -76 c 1
 116 -76 141 -97 141 -133 c 0
 141 -146 122 -175 98 -175 c 1
 115 -202 141 -210 175 -210 c 0
 250 -210 275 -110 275 5 c 1
 241 -13 218 -25 155 -25 c 1
 51 -25 0 24 0 93 c 0
 0 187 93 250 185 250 c 0
 315 250 384 159 385 0 c 1
 384 -133 311 -250 185 -250 c 0
 128 -250 87 -244 45 -205 c 0
EndSplineSet
Validated: 1
EndChar

StartChar: uniE08A
Encoding: 32 57482 32
Width: 409
Flags: HMW
LayerCount: 2
Fore
SplineSet
303 164 m 1
 311 163 315 162 321 161 c 1
 324 165 325 170 325 174 c 0
 325 202 273 224 234 224 c 5
 173 222 119 170 119 18 c 0
 119 -58 126 -133 158 -175 c 0
 181 -204 207 -217 239 -217 c 0
 265 -217 294 -207 322 -183 c 0
 350 -159 369 -119 392 -71 c 1
 392 -74 410 -77 409 -80 c 0
 376 -183 333 -244 211 -246 c 0
 161 -246 111 -226 73 -189 c 0
 34 -151 13 -98 10 -30 c 0
 10 -26 9 13 9 17 c 0
 9 185 97 248 228 249 c 0
 280 249 325 222 345 199 c 0
 365 176 379 150 379 124 c 0
 379 77 354 30 315 30 c 0
 270 30 242 69 242 104 c 1
 244 130 265 164 302 164 c 2
 303 164 l 1
EndSplineSet
Validated: 1
EndChar

StartChar: uniE08B
Encoding: 33 57483 33
Width: 408
Flags: MW
LayerCount: 2
Fore
SplineSet
303 164 m 1
 311 163 315 162 321 161 c 1
 324 165 325 170 325 174 c 0
 325 202 273 228 234 228 c 0
 226 228 223 226 215 224 c 1
 215 -213 l 1
 224 -216 229 -217 239 -217 c 0
 265 -217 294 -207 322 -183 c 0
 350 -159 369 -119 392 -71 c 1
 392 -74 410 -77 409 -80 c 0
 377 -180 338 -244 216 -246 c 1
 215 -246 l 1
 215 -350 l 1
 180 -350 l 1
 180 -243 l 1
 141 -237 103 -218 73 -189 c 0
 34 -151 13 -98 10 -30 c 0
 10 -26 9 13 9 17 c 0
 9 164 76 230 180 245 c 1
 180 350 l 1
 215 350 l 1
 215 248 l 1
 221 248 222 249 228 249 c 0
 280 249 325 222 345 199 c 0
 365 176 379 150 379 124 c 0
 379 77 354 30 315 30 c 0
 270 30 242 69 242 104 c 1
 244 130 265 164 302 164 c 2
 303 164 l 1
180 -197 m 1
 180 209 l 1
 144 182 119 122 119 18 c 0
 119 -58 126 -133 158 -175 c 0
 165 -184 172 -191 180 -197 c 1
EndSplineSet
Validated: 1
EndChar

StartChar: uniE08C
Encoding: 34 57484 34
Width: 500
Flags: HMW
HStem: -250 500
LayerCount: 2
Fore
SplineSet
0 35 m 25
 215 35 l 25
 215 250 l 25
 285 250 l 25
 285 35 l 25
 500 35 l 25
 500 -35 l 25
 285 -35 l 25
 285 -250 l 25
 215 -250 l 25
 215 -35 l 25
 0 -35 l 25
 0 35 l 25
EndSplineSet
Validated: 1
EndChar

StartChar: uniE094
Encoding: 35 57492 35
Width: 260
Flags: MW
HStem: -250 500
LayerCount: 2
Fore
SplineSet
220 -490 m 0
 228 -500 208 -509 200 -500 c 4
 105 -388 20 -171 20 0 c 0
 20 170 105 388 200 500 c 0
 211 513 231 503 220 490 c 0
 136 388 90 170 90 0 c 0
 90 -169 138 -388 220 -490 c 0
EndSplineSet
Validated: 1
EndChar

StartChar: uniE095
Encoding: 36 57493 36
Width: 260
Flags: HMW
LayerCount: 2
Fore
SplineSet
20 -490 m 0
 102 -388 150 -169 150 0 c 0
 150 170 104 388 20 490 c 0
 9 503 29 513 40 500 c 0
 135 388 220 170 220 0 c 0
 220 -171 135 -388 40 -500 c 0
 32 -509 12 -500 20 -490 c 0
EndSplineSet
Validated: 1
EndChar

StartChar: uniE0A0
Encoding: 37 57504 37
Width: 619
Flags: HMW
LayerCount: 2
Fore
SplineSet
424 -32 m 0
 424 38 361 99 280 99 c 0
 241 99 196 73 196 29 c 0
 196 -42 263 -99 344 -99 c 0
 385 -99 424 -77 424 -32 c 0
538 170 m 1
 588 170 l 1
 588 -170 l 1
 538 -170 l 1
 538 170 l 1
36 170 m 1
 86 170 l 1
 86 -170 l 1
 36 -170 l 1
 36 170 l 1
537 0 m 0
 537 -80 448 -130 312 -130 c 0
 176 -130 87 -75 87 0 c 0
 87 85 176 130 312 130 c 0
 448 130 537 80 537 0 c 0
EndSplineSet
Validated: 1
EndChar

StartChar: uniE0A1
Encoding: 38 57505 38
Width: 530
Flags: HMW
LayerCount: 2
Fore
SplineSet
30 65 m 25
 30 -65 l 25
 500 -65 l 25
 500 65 l 25
 30 65 l 25
0 220 m 29
 30 220 l 25
 30 165 l 25
 500 165 l 25
 500 220 l 25
 530 220 l 25
 530 -220 l 25
 500 -220 l 25
 500 -165 l 25
 30 -165 l 25
 30 -220 l 25
 0 -220 l 25
 0 220 l 29
EndSplineSet
Validated: 1
EndChar

StartChar: uniE0A2
Encoding: 39 57506 39
Width: 450
Flags: HMW
LayerCount: 2
Fore
SplineSet
337 -30 m 4
 337 40 264 101 193 101 c 4
 154 101 109 75 109 31 c 4
 109 -40 186 -97 257 -97 c 4
 298 -97 337 -75 337 -30 c 4
450 0 m 4
 450 -70 361 -129 225 -129 c 4
 89 -129 0 -70 0 0 c 4
 0 70 89 129 225 129 c 4
 361 129 450 70 450 0 c 4
EndSplineSet
Validated: 1
EndChar

StartChar: uniE0A3
Encoding: 40 57507 40
Width: 329
Flags: MW
LayerCount: 2
Fore
SplineSet
292 68 m 4
 283 84 264 91 242 91 c 4
 164 91 31 10 31 -49 c 4
 31 -56 33 -62 37 -68 c 4
 45 -84 64 -91 86 -91 c 4
 164 -91 297 -10 297 49 c 4
 297 56 295 62 292 68 c 4
313 81 m 4
 323 61 328 41 328 22 c 4
 328 -70 223 -148 130 -148 c 4
 83 -148 40 -128 15 -81 c 4
 5 -61 0 -41 0 -22 c 4
 0 70 105 148 198 148 c 4
 245 148 288 128 313 81 c 4
EndSplineSet
Validated: 1
EndChar

StartChar: uniE0A4
Encoding: 41 57508 41
Width: 320
Flags: HMW
LayerCount: 2
Fore
SplineSet
320 40 m 4
 320 -51 231 -135 110 -135 c 4
 40 -135 0 -90 0 -40 c 4
 0 50 90 135 210 135 c 4
 280 135 320 90 320 40 c 4
EndSplineSet
Validated: 1
EndChar

StartChar: uniE0A9
Encoding: 42 57513 42
Width: 330
Flags: HMW
LayerCount: 2
Fore
SplineSet
-2 113 m 1
 25 145 l 1
 165 27 l 1
 305 144 l 1
 332 112 l 1
 198 -0 l 1
 332 -112 l 1
 304 -145 l 1
 165 -28 l 1
 26 -145 l 1
 -2 -112 l 1
 132 -0 l 1
 -2 113 l 1
EndSplineSet
Validated: 1
EndChar

StartChar: uniE0B3
Encoding: 43 57523 43
Width: 300
Flags: HMW
LayerCount: 2
Fore
SplineSet
150 -18 m 1
 79 -90 l 1
 98 -109 124 -119 150 -119 c 0
 176 -119 202 -109 222 -90 c 1
 150 -18 l 1
129 0 m 1
 58 73 l 1
 39 53 29 27 29 1 c 0
 29 -25 39 -51 58 -70 c 1
 129 0 l 1
150 18 m 1
 222 90 l 1
 202 109 176 119 150 119 c 0
 124 119 98 109 79 90 c 1
 150 18 l 1
171 0 m 1
 242 -72 l 1
 261 -52 271 -26 271 0 c 0
 271 26 261 52 242 71 c 1
 171 0 l 1
0 0 m 24
 0 83 67 150 150 150 c 24
 233 150 300 83 300 0 c 24
 300 -83 233 -150 150 -150 c 24
 67 -150 0 -83 0 0 c 24
EndSplineSet
Validated: 1
EndChar

StartChar: uniE101
Encoding: 44 57601 44
Width: 560
Flags: W
LayerCount: 2
Fore
SplineSet
0 -250 m 5
 440 250 l 5
 560 250 l 5
 119 -250 l 5
 0 -250 l 5
EndSplineSet
Validated: 1
EndChar

StartChar: uniE1B9
Encoding: 45 57785 45
Width: 330
Flags: W
HStem: -140 280
VStem: 0 330
LayerCount: 2
Fore
SplineSet
0 0 m 1
 165 140 l 1
 330 0 l 1
 165 -140 l 1
 0 0 l 1
EndSplineSet
Validated: 1
EndChar

StartChar: uniE1BB
Encoding: 46 57787 46
Width: 330
Flags: W
HStem: -140 280
VStem: 0 330
LayerCount: 2
Fore
SplineSet
0 -140 m 29
 165 140 l 25
 330 -140 l 29
 0 -140 l 29
EndSplineSet
Validated: 1
EndChar

StartChar: uniE1E7
Encoding: 47 57831 47
Width: 100
Flags: MW
LayerCount: 2
Fore
SplineSet
50 -50 m 3
 22 -50 0 -28 0 0 c 3
 0 28 22 50 50 50 c 3
 78 50 100 28 100 0 c 3
 100 -28 78 -50 50 -50 c 3
EndSplineSet
Validated: 1
EndChar

StartChar: uniE1F2
Encoding: 48 57842 48
Width: 320
Flags: HMW
LayerCount: 2
Fore
SplineSet
0 680 m 1
 320 680 l 1
 320 40 l 2
 320 -51 231 -135 110 -135 c 0
 40 -135 0 -90 0 -40 c 0
 0 50 90 135 210 135 c 0
 244 135 271 124 290 107 c 1
 290 560 l 1
 0 560 l 1
 0 680 l 1
EndSplineSet
Validated: 1
EndChar

StartChar: uniE1F4
Encoding: 49 57844 49
Width: 320
Flags: HMW
LayerCount: 2
Fore
SplineSet
0 680 m 1
 320 680 l 1
 320 40 l 2
 320 -51 231 -135 110 -135 c 0
 40 -135 0 -90 0 -40 c 0
 0 50 90 135 210 135 c 0
 244 135 271 124 290 107 c 1
 290 380 l 1
 0 380 l 1
 0 500 l 1
 290 500 l 1
 290 560 l 1
 0 560 l 1
 0 680 l 1
EndSplineSet
Validated: 1
EndChar

StartChar: uniE1F7
Encoding: 50 57847 50
Width: 320
Flags: HMW
LayerCount: 2
Fore
SplineSet
0 680 m 25
 320 680 l 29
 320 560 l 25
 0 560 l 25
 0 680 l 25
EndSplineSet
Validated: 1
EndChar

StartChar: uniE1F9
Encoding: 51 57849 51
Width: 320
Flags: HMW
LayerCount: 2
Fore
SplineSet
0 500 m 25
 320 500 l 25
 320 380 l 25
 0 380 l 29
 0 500 l 25
0 680 m 25
 320 680 l 25
 320 560 l 25
 0 560 l 25
 0 680 l 25
EndSplineSet
Validated: 1
EndChar

StartChar: uniE1FC
Encoding: 52 57852 52
Width: 100
Flags: HMW
LayerCount: 2
Fore
SplineSet
50 -38 m 7
 22 -38 0 -16 0 12 c 7
 0 40 22 62 50 62 c 7
 78 62 100 40 100 12 c 7
 100 -16 78 -38 50 -38 c 7
EndSplineSet
Validated: 1
EndChar

StartChar: uniE1FE
Encoding: 53 57854 53
Width: 310
Flags: HMW
LayerCount: 2
Fore
SplineSet
0 960 m 29
 310 960 l 29
 310 930 l 29
 30 930 l 29
 30 770 l 29
 0 770 l 29
 0 960 l 29
EndSplineSet
Validated: 1
EndChar

StartChar: uniE1FF
Encoding: 54 57855 54
Width: 230
Flags: HMW
LayerCount: 2
Fore
SplineSet
80 810 m 0
 27 810 0 833 0 864 c 0
 0 882 11 900 30 900 c 0
 51 900 63 888 63 872 c 0
 63 842 40 846 40 840 c 0
 40 831 59 827 73 827 c 0
 100 827 130 857 130 900 c 0
 130 918 120 940 98 940 c 0
 88 940 90 940 80 940 c 0
 70 940 60 943 60 954 c 24
 60 965 69 970 80 970 c 0
 95 970 105 970 120 970 c 0
 151 970 180 1001 180 1028 c 0
 180 1043 172 1060 152 1060 c 0
 141 1060 131 1056 131 1047 c 0
 131 1040 133 1043 133 1028 c 0
 133 1014 124 1000 100 1000 c 0
 84 1000 70 1013 70 1029 c 0
 70 1052 86 1080 150 1080 c 0
 197 1080 230 1055 230 1020 c 0
 230 966 160 949 160 940 c 0
 160 933 180 916 180 890 c 0
 180 847 149 810 80 810 c 0
EndSplineSet
Validated: 1
EndChar

StartChar: uniE200
Encoding: 55 57856 55
Width: 310
Flags: HMW
LayerCount: 2
Fore
SplineSet
310 960 m 25
 310 770 l 25
 280 770 l 25
 280 930 l 25
 0 930 l 25
 0 960 l 25
 310 960 l 25
EndSplineSet
Validated: 1
EndChar

StartChar: uniE240
Encoding: 56 57920 56
Width: 315
Flags: HMW
LayerCount: 2
Fore
SplineSet
0 -239 m 13
 0 0 l 5
 30 0 l 5
 51 -195 315 -321 315 -584 c 4
 315 -643 302 -710 269 -785 c 5
 282 -738 287 -691 287 -647 c 4
 287 -452 175 -294 30 -239 c 5
 0 -239 l 13
EndSplineSet
Validated: 1
EndChar

StartChar: uniE241
Encoding: 57 57921 57
Width: 315
Flags: HMW
LayerCount: 2
Fore
SplineSet
0 0 m 1
 0 239 l 1
 30 239 l 1
 178 280 288 445 288 642 c 0
 288 688 282 736 269 785 c 1
 302 711 315 647 315 588 c 0
 315 328 51 195 30 0 c 0
 0 0 l 1
EndSplineSet
Validated: 1
EndChar

StartChar: uniE242
Encoding: 58 57922 58
Width: 315
Flags: HMW
LayerCount: 2
Fore
SplineSet
0 -343 m 13
 0 0 l 5
 30 0 l 5
 62 -133 315 -236 315 -418 c 4
 315 -445 310 -474 297 -505 c 5
 309 -531 316 -559 316 -589 c 4
 316 -623 307 -660 286 -700 c 5
 290 -680 291 -660 291 -642 c 4
 291 -448 100 -342 30 -342 c 5
 0 -343 l 13
30 -171 m 5
 56 -278 226 -366 291 -492 c 5
 291 -485 292 -479 292 -472 c 4
 292 -278 101 -171 30 -171 c 5
EndSplineSet
Validated: 1
EndChar

StartChar: uniE243
Encoding: 59 57923 59
Width: 315
Flags: HMW
LayerCount: 2
Fore
SplineSet
0 -1 m 9
 0 342 l 1
 30 342 l 1
 100 342 291 448 291 642 c 0
 291 660 290 680 286 700 c 1
 307 660 316 623 316 589 c 0
 316 559 309 531 297 505 c 1
 310 474 315 445 315 418 c 0
 315 236 62 133 30 0 c 1
 0 -1 l 9
30 171 m 1
 101 171 292 278 292 472 c 0
 292 479 291 484 291 491 c 1
 226 365 56 278 30 171 c 1
EndSplineSet
Validated: 1
EndChar

StartChar: uniE244
Encoding: 60 57924 60
Width: 315
Flags: HMW
LayerCount: 2
Fore
SplineSet
0 -368 m 9
 0 145 l 1
 30 145 l 1
 62 12 315 -91 315 -273 c 0
 315 -300 310 -329 297 -360 c 1
 309 -386 315 -414 315 -444 c 0
 315 -471 310 -500 297 -531 c 1
 309 -557 316 -585 316 -615 c 0
 316 -649 307 -686 286 -726 c 1
 290 -706 291 -687 291 -668 c 0
 291 -475 100 -368 30 -368 c 1
 0 -368 l 9
30 -199 m 1
 56 -307 226 -392 291 -518 c 1
 291 -511 292 -504 292 -498 c 0
 292 -306 105 -199 32 -199 c 0
 31 -199 31 -199 30 -199 c 1
30 -28 m 1
 56 -135 226 -221 291 -347 c 1
 291 -340 292 -333 292 -327 c 0
 292 -135 105 -28 32 -28 c 0
 31 -28 31 -28 30 -28 c 1
EndSplineSet
Validated: 1
EndChar

StartChar: uniE245
Encoding: 61 57925 61
Width: 315
Flags: HMW
LayerCount: 2
Fore
SplineSet
0 343 m 17
 30 343 l 1
 100 343 291 449 291 643 c 0
 291 661 290 681 286 701 c 1
 307 661 316 624 316 590 c 0
 316 560 309 532 297 506 c 1
 310 475 315 446 315 419 c 0
 315 389 309 361 297 335 c 1
 310 304 315 275 315 248 c 0
 315 66 62 -37 30 -170 c 1
 0 -170 l 1
 0 343 l 17
30 0 m 1
 101 0 292 108 292 302 c 0
 292 309 291 315 291 322 c 1
 226 196 56 109 30 0 c 1
30 171 m 1
 101 171 292 279 292 473 c 0
 292 480 291 486 291 493 c 1
 226 367 56 280 30 171 c 1
EndSplineSet
Validated: 1
EndChar

StartChar: uniE246
Encoding: 62 57926 62
Width: 315
Flags: HMW
LayerCount: 2
Fore
SplineSet
0 -344 m 9
 0 340 l 1
 30 340 l 1
 62 207 315 104 315 -78 c 0
 315 -105 310 -134 297 -165 c 1
 309 -191 315 -219 315 -249 c 0
 315 -276 310 -305 297 -336 c 1
 309 -362 315 -390 315 -420 c 0
 315 -447 310 -476 297 -507 c 1
 309 -533 316 -561 316 -591 c 0
 316 -625 307 -662 286 -702 c 1
 290 -682 291 -662 291 -644 c 0
 291 -450 100 -344 30 -344 c 1
 0 -344 l 9
30 -173 m 1
 56 -281 226 -368 291 -494 c 1
 291 -487 292 -481 292 -474 c 0
 292 -280 101 -173 30 -173 c 1
30 -2 m 1
 56 -110 226 -197 291 -323 c 1
 291 -316 292 -310 292 -303 c 0
 292 -109 101 -2 30 -2 c 1
30 169 m 1
 56 62 226 -26 291 -152 c 1
 291 -145 292 -139 292 -132 c 0
 292 62 101 169 30 169 c 1
EndSplineSet
Validated: 1
EndChar

StartChar: uniE247
Encoding: 63 57927 63
Width: 315
Flags: HMW
LayerCount: 2
Fore
SplineSet
0 -370 m 9
 0 314 l 1
 30 314 l 1
 100 314 291 421 291 614 c 0
 291 633 290 652 286 672 c 1
 307 632 316 595 316 561 c 0
 316 531 309 503 297 477 c 1
 310 446 315 417 315 390 c 0
 315 360 309 332 297 306 c 1
 310 275 315 246 315 219 c 0
 315 189 309 161 297 135 c 1
 310 104 315 75 315 48 c 0
 315 -134 62 -237 30 -370 c 1
 0 -370 l 9
30 -200 m 1
 101 -200 292 -92 292 102 c 0
 292 108 291 115 291 122 c 1
 226 -4 56 -91 30 -200 c 1
30 -29 m 1
 101 -29 292 79 292 273 c 0
 292 279 291 286 291 293 c 1
 226 167 56 81 30 -29 c 1
30 142 m 1
 101 142 292 250 292 444 c 0
 292 450 291 457 291 464 c 1
 226 338 56 251 30 142 c 1
EndSplineSet
Validated: 1
EndChar

StartChar: uniE248
Encoding: 64 57928 64
Width: 315
Flags: HMW
LayerCount: 2
Fore
SplineSet
0 -325 m 9
 0 530 l 1
 30 530 l 1
 62 397 315 294 315 112 c 0
 315 85 310 56 297 25 c 1
 309 -1 315 -29 315 -59 c 0
 315 -86 310 -115 297 -146 c 1
 309 -172 315 -200 315 -230 c 0
 315 -257 310 -286 297 -317 c 1
 309 -343 315 -371 315 -401 c 0
 315 -428 310 -457 297 -488 c 1
 309 -514 316 -542 316 -572 c 0
 316 -606 307 -643 286 -683 c 1
 290 -663 291 -643 291 -625 c 0
 291 -431 100 -325 30 -325 c 1
 0 -325 l 9
30 -154 m 1
 56 -262 226 -349 291 -475 c 1
 291 -468 292 -462 292 -455 c 0
 292 -261 101 -154 30 -154 c 1
30 17 m 1
 56 -91 226 -178 291 -304 c 1
 291 -297 292 -291 292 -284 c 0
 292 -90 101 17 30 17 c 1
30 188 m 1
 56 80 226 -7 291 -133 c 1
 291 -126 292 -120 292 -113 c 0
 292 81 101 188 30 188 c 1
30 359 m 1
 56 252 226 164 291 38 c 1
 291 45 292 51 292 58 c 0
 292 252 101 359 30 359 c 1
EndSplineSet
Validated: 1
EndChar

StartChar: uniE249
Encoding: 65 57929 65
Width: 315
Flags: HMW
LayerCount: 2
Fore
SplineSet
0 -580 m 9
 0 275 l 1
 30 275 l 1
 100 275 291 382 291 575 c 0
 291 594 290 613 286 633 c 1
 307 593 316 556 316 522 c 0
 316 492 309 464 297 438 c 1
 310 407 315 378 315 351 c 0
 315 321 309 293 297 267 c 1
 310 236 315 207 315 180 c 0
 315 150 309 122 297 96 c 1
 310 65 315 36 315 9 c 0
 315 -21 309 -49 297 -75 c 1
 310 -106 315 -135 315 -162 c 0
 315 -344 62 -447 30 -580 c 1
 0 -580 l 9
30 -410 m 1
 101 -410 292 -302 292 -108 c 0
 292 -102 291 -95 291 -88 c 1
 226 -214 56 -301 30 -410 c 1
30 -239 m 1
 101 -239 292 -131 292 63 c 0
 292 69 291 76 291 83 c 1
 226 -43 56 -129 30 -239 c 1
30 -68 m 1
 101 -68 292 40 292 234 c 0
 292 240 291 247 291 254 c 1
 226 128 56 41 30 -68 c 1
30 103 m 1
 101 103 292 211 292 405 c 0
 292 411 291 418 291 425 c 1
 226 299 56 213 30 103 c 1
EndSplineSet
Validated: 1
EndChar

StartChar: uniE260
Encoding: 66 57952 66
Width: 269
Flags: HMW
LayerCount: 2
Fore
SplineSet
103 122 m 0
 77 122 40 90 40 65 c 2
 40 -120 l 1
 58 -112 83 -92 112 -49 c 1
 142 -8 155 22 155 57 c 0
 155 92 134 122 103 122 c 0
133 160 m 0
 177 160 225 124 225 75 c 0
 225 28 203 -20 150 -74 c 0
 96 -128 40 -156 0 -156 c 1
 0 432 l 1
 40 432 l 1
 40 108 l 1
 63 142 93 160 133 160 c 0
EndSplineSet
Validated: 1
EndChar

StartChar: uniE261
Encoding: 67 57953 67
Width: 200
Flags: MW
LayerCount: 2
Fore
SplineSet
28 -101 m 1
 172 -56 l 1
 172 94 l 1
 28 49 l 1
 28 -101 l 1
28 378 m 1
 28 146 l 1
 197 198 l 1
 197 -378 l 1
 172 -378 l 1
 172 -152 l 1
 0 -203 l 1
 0 376 l 1
 1 377 l 1
 28 378 l 1
EndSplineSet
Validated: 1
EndChar

StartChar: uniE262
Encoding: 68 57954 68
Width: 255
Flags: HMW
LayerCount: 2
Fore
SplineSet
83 70 m 21
 83 -97 l 5
 173 -70 l 5
 173 97 l 5
 83 70 l 21
83 -360 m 5
 53 -360 l 5
 53 -197 l 5
 0 -212 l 5
 0 -120 l 5
 53 -105 l 5
 53 62 l 5
 0 47 l 5
 0 137 l 5
 53 152 l 5
 53 320 l 5
 83 320 l 5
 83 161 l 5
 173 189 l 5
 173 360 l 5
 202 360 l 5
 202 197 l 5
 255 212 l 5
 255 120 l 5
 202 105 l 5
 202 -62 l 5
 255 -47 l 5
 255 -137 l 5
 202 -152 l 5
 202 -320 l 5
 173 -320 l 5
 173 -161 l 5
 83 -189 l 5
 83 -360 l 5
EndSplineSet
Validated: 1
EndChar

StartChar: uniE263
Encoding: 69 57955 69
Width: 267
Flags: MW
LayerCount: 2
Fore
SplineSet
195 -124 m 9
 195 -65 l 25
 195 -65 155 -27 143 -14 c 9
 92 -65 l 25
 92 -65 92 -104 92 -124 c 1
 20 -124 l 1
 20 -50 l 9
 77 -50 l 25
 128 0 l 25
 77 50 l 25
 77 50 41 50 20 50 c 1
 20 122 l 1
 92 122 l 9
 92 65 l 25
 92 65 125 31 143 14 c 9
 195 65 l 25
 195 65 195 94 195 122 c 1
 267 122 l 1
 267 51 l 9
 210 51 l 25
 210 51 177 17 158 0 c 9
 210 -52 l 25
 210 -52 248 -52 267 -52 c 1
 267 -124 l 1
 195 -124 l 9
EndSplineSet
Validated: 1
EndChar

StartChar: uniE264
Encoding: 70 57956 70
Width: 366
Flags: HMW
LayerCount: 2
Fore
SplineSet
78 125 m 1
 55 124 31 100 31 78 c 2
 31 -120 l 1
 43 -120 54 -108 75 -79 c 0
 96 -50 110 -19 118 16 c 0
 122 29 122 42 122 54 c 0
 122 72 119 90 112 104 c 1
 102 117 90 125 79 125 c 2
 78 125 l 1
104 163 m 0
 144 163 176 116 176 73 c 0
 176 57 172 41 167 23 c 1
 150 -17 128 -52 100 -86 c 0
 71 -121 33 -150 0 -150 c 1
 0 432 l 1
 31 432 l 1
 31 113 l 1
 47 145 68 163 104 163 c 0
265 125 m 1
 242 124 219 100 219 78 c 2
 219 -120 l 5
 230 -120 244 -108 265 -79 c 0
 283 -50 297 -19 305 16 c 0
 309 29 311 42 311 54 c 0
 311 72 307 90 300 104 c 1
 290 117 280 125 269 125 c 2
 265 125 l 1
291 163 m 0
 333 163 364 119 364 73 c 0
 364 57 360 41 353 23 c 0
 337 -17 317 -52 288 -86 c 1
 260 -121 219 -150 189 -150 c 1
 189 432 l 1
 219 432 l 1
 219 113 l 1
 235 143 256 163 291 163 c 0
EndSplineSet
Validated: 1
EndChar

StartChar: uniE280
Encoding: 71 57984 71
Width: 269
Flags: HMW
LayerCount: 2
Fore
SplineSet
171 122 m 0
 140 122 116 92 116 57 c 0
 116 22 136 -21 162 -60 c 0
 185 -93 216 -127 234 -129 c 1
 234 74 l 2
 234 99 197 122 171 122 c 0
141 160 m 0
 181 160 211 142 234 108 c 1
 234 432 l 1
 269 432 l 1
 269 236 269 40 269 -156 c 1
 235 -156 183 -128 129 -74 c 0
 76 -20 50 28 50 75 c 0
 50 124 97 160 141 160 c 0
EndSplineSet
Validated: 1
EndChar

StartChar: uniE281
Encoding: 72 57985 72
Width: 366
Flags: HMW
LayerCount: 2
Fore
SplineSet
87 125 m 1
 86 125 l 2
 75 125 63 117 53 104 c 1
 46 90 43 72 43 54 c 0
 43 42 43 29 47 16 c 0
 55 -19 69 -50 90 -79 c 0
 111 -108 122 -120 134 -120 c 1
 134 78 l 2
 134 100 110 124 87 125 c 1
61 163 m 0
 97 163 118 145 134 113 c 1
 134 432 l 1
 165 432 l 1
 165 -150 l 1
 135 -150 94 -121 65 -86 c 0
 37 -52 15 -17 -2 23 c 1
 -7 41 -11 57 -11 73 c 0
 -11 116 21 163 61 163 c 0
265 125 m 1
 242 124 219 100 219 78 c 2
 219 -120 l 1
 230 -120 244 -108 265 -79 c 0
 283 -50 297 -19 305 16 c 0
 309 29 311 42 311 54 c 0
 311 72 307 90 300 104 c 1
 290 117 280 125 269 125 c 2
 265 125 l 1
291 163 m 0
 333 163 364 119 364 73 c 0
 364 57 360 41 353 23 c 0
 337 -17 317 -52 288 -86 c 1
 260 -121 219 -150 189 -150 c 1
 189 432 l 1
 219 432 l 1
 219 113 l 1
 235 143 256 163 291 163 c 0
EndSplineSet
Validated: 1
EndChar

StartChar: uniE282
Encoding: 73 57986 73
Width: 169
Flags: HMW
LayerCount: 2
Fore
SplineSet
68 320 m 8
 98 320 l 1
 98 158 l 1
 169 172 l 1
 169 80 l 1
 98 66 l 1
 98 -61 l 1
 169 -47 l 1
 169 -137 l 1
 98 -152 l 1
 98 -320 l 8
 68 -320 l 1
 68 -158 l 1
 0 -172 l 1
 0 -80 l 1
 68 -66 l 1
 68 61 l 1
 0 47 l 1
 0 137 l 1
 68 152 l 1
 68 320 l 8
EndSplineSet
Validated: 1
EndChar

StartChar: uniE283
Encoding: 74 57987 74
Width: 314
Flags: HMW
LayerCount: 2
Fore
SplineSet
233 192 m 17
 233 360 l 1
 263 360 l 1
 263 202 l 1
 314 217 l 1
 314 125 l 1
 263 110 l 1
 263 -49 l 1
 314 -34 l 1
 314 -124 l 1
 263 -139 l 1
 263 -320 l 1
 233 -320 l 1
 233 -150 l 1
 172 -168 l 1
 172 -340 l 25
 142 -340 l 25
 142 -176 l 25
 82 -192 l 17
 81 -360 l 1
 51 -360 l 1
 51 -202 l 1
 0 -217 l 1
 0 -125 l 1
 51 -110 l 1
 51 49 l 1
 0 34 l 1
 0 124 l 1
 51 139 l 1
 51 320 l 1
 81 320 l 1
 81 150 l 1
 142 168 l 1
 142 340 l 25
 172 340 l 25
 172 176 l 25
 233 192 l 17
142 -83 m 9
 142 75 l 1
 81 58 l 1
 81 -101 l 1
 142 -83 l 9
172 83 m 9
 172 -75 l 1
 233 -58 l 1
 233 101 l 1
 172 83 l 9
EndSplineSet
Validated: 1
EndChar

StartChar: uniE4A0
Encoding: 75 58528 75
Width: 320
Flags: W
HStem: 0 244<5 15>
VStem: -3 322
LayerCount: 2
Fore
SplineSet
18 1 m 0
 16 0 15 0 13 0 c 0
 3 0 -3 14 -3 24 c 0
 -3 30 -1 35 3 37 c 1
 210 110 l 1
 220 115 220 119 210 123 c 1
 5 202 l 1
 0 204 -3 210 -3 216 c 0
 -3 229 5 244 15 244 c 0
 16 244 17 243 18 243 c 1
 305 136 l 1
 314 132 319 124 319 116 c 0
 319 109 314 101 305 98 c 1
 18 1 l 0
EndSplineSet
Validated: 1
EndChar

StartChar: uniE4A2
Encoding: 76 58530 76
Width: 80
Flags: HMW
LayerCount: 2
Fore
SplineSet
0 40 m 24
 0 63 17 80 40 80 c 24
 62 80 80 63 80 40 c 24
 80 18 63 0 40 0 c 24
 18 0 0 18 0 40 c 24
EndSplineSet
Validated: 1
EndChar

StartChar: uniE4A4
Encoding: 77 58532 77
Width: 320
Flags: HMW
LayerCount: 2
Fore
SplineSet
0 0 m 25
 0 40 l 25
 320 40 l 25
 320 0 l 25
 0 0 l 25
EndSplineSet
Validated: 1
EndChar

StartChar: uniE4A8
Encoding: 78 58536 78
Width: 100
Flags: HMW
LayerCount: 2
Fore
SplineSet
40 0 m 25
 0 280 l 25
 100 280 l 25
 60 0 l 25
 40 0 l 25
EndSplineSet
Validated: 1
EndChar

StartChar: uniE4AC
Encoding: 79 58540 79
Width: 280
Flags: W
HStem: 0 309
VStem: 0 280
LayerCount: 2
Fore
SplineSet
0 0 m 1
 140 309 l 25
 280 0 l 1
 215 0 l 1
 127 198 l 25
 37 0 l 1
 0 0 l 1
EndSplineSet
Validated: 1
EndChar

StartChar: uniE4C0
Encoding: 80 58560 80
Width: 600
Flags: HMW
LayerCount: 2
Fore
SplineSet
0 0 m 1
 0 214 150 330 300 330 c 3
 450 330 600 213 600 0 c 1
 585 0 l 5
 570 150 446 244 300 244 c 3
 154 244 30 150 15 0 c 1
 0 0 l 1
299 0 m 3
 268 0 239 28 239 60 c 3
 239 92 268 120 299 120 c 3
 332 120 359 92 359 60 c 3
 359 27 333 0 299 0 c 3
EndSplineSet
Validated: 1
EndChar

StartChar: uniE4CE
Encoding: 81 58574 81
Width: 182
Flags: HMW
LayerCount: 2
Fore
SplineSet
86 301 m 0
 123 301 136 294 156 272 c 0
 175 251 182 226 182 195 c 0
 182 152 162 110 132 74 c 0
 97 34 43 0 23 0 c 0
 21 0 19 2 17 3 c 0
 16 4 16 5 16 6 c 0
 16 26 87 105 87 140 c 0
 87 149 81 155 67 155 c 0
 32 156 -0 184 -0 222 c 0
 -0 258 27 301 86 301 c 0
EndSplineSet
Validated: 1
EndChar

StartChar: uniE4E1
Encoding: 82 58593 82
Width: 130
Flags: HMW
LayerCount: 2
Fore
SplineSet
0 250 m 1
 130 250 l 1
 130 -250 l 5
 0 -250 l 1
 0 250 l 1
EndSplineSet
Validated: 1
EndChar

StartChar: uniE4E2
Encoding: 83 58594 83
Width: 130
Flags: MW
LayerCount: 2
Fore
SplineSet
0 250 m 1
 130 250 l 1
 130 0 l 1
 0 0 l 1
 0 250 l 1
EndSplineSet
Validated: 1
EndChar

StartChar: uniE4E3
Encoding: 84 58595 84
Width: 300
Flags: MW
LayerCount: 2
Fore
SplineSet
0 0 m 1
 300 0 l 1
 300 -125 l 1
 0 -125 l 1
 0 0 l 1
EndSplineSet
Validated: 1
EndChar

StartChar: uniE4E4
Encoding: 85 58596 85
Width: 300
Flags: MW
LayerCount: 2
Fore
SplineSet
0 125 m 1
 300 125 l 1
 300 0 l 1
 0 0 l 1
 0 125 l 1
EndSplineSet
Validated: 1
EndChar

StartChar: uniE4E5
Encoding: 86 58597 86
Width: 238
Flags: MW
LayerCount: 2
Fore
SplineSet
41 391 m 1
 230 162 l 1
 127 -55 l 1
 235 -262 l 1
 199 -229 163 -216 133 -216 c 0
 92 -216 64 -242 64 -281 c 0
 64 -311 79 -348 120 -386 c 1
 32 -331 0 -276 0 -234 c 0
 0 -186 41 -154 89 -154 c 0
 112 -154 134 -161 157 -175 c 9
 22 13 l 1
 122 193 l 1
 41 391 l 1
EndSplineSet
Validated: 1
EndChar

StartChar: uniE4E6
Encoding: 87 58598 87
Width: 255
Flags: W
HStem: 48 33<112 170.038>
VStem: 0 135<81.9955 177.625>
LayerCount: 2
Fore
SplineSet
171 60 m 1
 153 56 140 48 98 48 c 0
 45 48 0 73 0 129 c 0
 0 174 33 192 66 192 c 0
 101 192 135 172 135 137 c 0
 135 121 130 102 112 81 c 1
 158 81 186 100 230 158 c 1
 232 160 252 160 256 158 c 1
 106 -243 l 1
 58 -227 l 1
 171 60 l 1
EndSplineSet
Validated: 1
EndChar

StartChar: uniE4E7
Encoding: 88 58599 88
Width: 329
Flags: MW
LayerCount: 2
Fore
SplineSet
171 -196 m 1
 151 -202 140 -208 98 -208 c 0
 45 -208 0 -184 0 -128 c 0
 0 -83 33 -64 66 -64 c 0
 101 -64 135 -85 135 -120 c 0
 135 -136 130 -155 112 -176 c 1
 158 -176 182 -160 188 -142 c 1
 248 60 l 1
 230 56 212 48 170 48 c 0
 117 48 72 73 72 129 c 0
 72 174 105 192 138 192 c 0
 173 192 207 172 207 137 c 0
 207 121 202 102 184 81 c 1
 230 81 272 108 302 158 c 1
 304 160 324 160 328 158 c 1
 131 -500 l 1
 86 -488 l 1
 171 -196 l 1
EndSplineSet
Validated: 1
EndChar

StartChar: uniE4E8
Encoding: 89 58600 89
Width: 399
Flags: MW
LayerCount: 2
Fore
SplineSet
246 60 m 1
 226 54 217 48 175 48 c 0
 122 48 77 72 77 128 c 0
 77 173 110 192 143 192 c 0
 178 192 212 171 212 136 c 0
 212 120 207 101 189 80 c 1
 235 80 257 96 263 114 c 1
 321 317 l 1
 303 313 283 304 241 304 c 0
 188 304 143 329 143 385 c 0
 143 430 176 448 209 448 c 0
 244 448 278 428 278 393 c 0
 278 377 273 358 255 337 c 1
 301 337 343 364 373 414 c 1
 375 416 395 416 399 414 c 1
 131 -500 l 1
 86 -488 l 1
 171 -196 l 1
 151 -202 140 -208 98 -208 c 0
 45 -208 0 -184 0 -128 c 0
 0 -83 33 -64 66 -64 c 0
 101 -64 135 -85 135 -120 c 0
 135 -136 130 -155 112 -176 c 1
 158 -176 182 -160 188 -142 c 1
 246 60 l 1
EndSplineSet
Validated: 1
EndChar

StartChar: uniE4E9
Encoding: 90 58601 90
Width: 472
Flags: MW
LayerCount: 2
Fore
SplineSet
171 -452 m 1
 151 -458 140 -464 98 -464 c 0
 45 -464 0 -440 0 -384 c 0
 0 -339 33 -320 66 -320 c 0
 101 -320 135 -341 135 -376 c 0
 135 -392 130 -411 112 -432 c 1
 158 -432 182 -416 188 -398 c 1
 246 -196 l 1
 226 -202 215 -208 173 -208 c 0
 120 -208 75 -184 75 -128 c 0
 75 -83 108 -64 141 -64 c 0
 176 -64 210 -85 210 -120 c 0
 210 -136 205 -155 187 -176 c 1
 233 -176 257 -160 263 -142 c 1
 321 60 l 1
 301 54 292 48 250 48 c 0
 197 48 152 72 152 128 c 0
 152 173 185 192 218 192 c 0
 253 192 287 171 287 136 c 0
 287 120 282 101 264 80 c 1
 310 80 332 96 338 114 c 1
 396 317 l 1
 378 313 358 304 316 304 c 0
 263 304 218 329 218 385 c 0
 218 430 251 448 284 448 c 0
 319 448 353 428 353 393 c 0
 353 377 348 358 330 337 c 1
 376 337 418 364 448 414 c 1
 450 416 470 416 474 414 c 1
 131 -756 l 1
 86 -744 l 1
 171 -452 l 1
EndSplineSet
Validated: 1
EndChar

StartChar: uniE4EA
Encoding: 91 58602 91
Width: 472
Flags: MW
LayerCount: 2
Fore
SplineSet
319 52 m 1
 299 46 288 40 246 40 c 0
 193 40 148 64 148 120 c 0
 148 165 181 184 214 184 c 0
 249 184 283 163 283 128 c 0
 283 112 278 93 260 72 c 1
 306 72 330 88 336 106 c 1
 390 302 l 1
 370 296 361 290 319 290 c 0
 266 290 221 314 221 370 c 0
 221 415 254 434 287 434 c 0
 322 434 356 413 356 378 c 0
 356 362 351 343 333 322 c 1
 379 322 401 338 407 356 c 1
 459 555 l 1
 441 551 421 542 379 542 c 0
 326 542 281 567 281 623 c 0
 281 668 314 686 347 686 c 0
 382 686 416 666 416 631 c 0
 416 615 411 596 393 575 c 1
 439 575 481 602 511 652 c 1
 513 654 533 654 537 652 c 1
 131 -756 l 1
 86 -744 l 1
 171 -452 l 1
 151 -458 140 -464 98 -464 c 0
 45 -464 0 -440 0 -384 c 0
 0 -339 33 -320 66 -320 c 0
 101 -320 135 -341 135 -376 c 0
 135 -392 130 -411 112 -432 c 1
 158 -432 182 -416 188 -398 c 1
 246 -198 l 1
 226 -204 215 -210 173 -210 c 0
 120 -210 75 -186 75 -130 c 0
 75 -85 108 -66 141 -66 c 0
 176 -66 210 -87 210 -122 c 0
 210 -138 205 -157 187 -178 c 1
 233 -178 257 -162 263 -144 c 1
 319 52 l 1
EndSplineSet
Validated: 1
EndChar

StartChar: uniE4EE
Encoding: 92 58606 92
Width: 851
Flags: W
HStem: -105 210<25 825>
VStem: 0 25<-230 -105 105 230> 825 25<-230 -105 105 230>
LayerCount: 2
Fore
SplineSet
0 230 m 25
 25 230 l 25
 25 105 l 25
 825 105 l 25
 825 230 l 25
 850 230 l 25
 850 -230 l 25
 825 -230 l 25
 825 -105 l 25
 25 -105 l 25
 25 -230 l 25
 0 -230 l 25
 0 230 l 25
EndSplineSet
Validated: 1
EndChar

StartChar: uniE500
Encoding: 93 58624 93
Width: 563
Flags: MW
LayerCount: 2
Fore
SplineSet
55 75 m 3
 22 75 -5 102 -5 135 c 3
 -5 169 22 195 55 195 c 3
 88 195 115 168 115 135 c 3
 115 102 88 75 55 75 c 3
482 -195 m 3
 449 -195 422 -168 422 -135 c 3
 422 -101 449 -75 482 -75 c 3
 515 -75 542 -102 542 -135 c 3
 542 -168 515 -195 482 -195 c 3
-16 -250 m 1
 424 250 l 1
 550 250 l 1
 109 -250 l 1
 -16 -250 l 1
EndSplineSet
Validated: 1
EndChar

StartChar: uniE501
Encoding: 94 58625 94
Width: 800
Flags: W
HStem: -195 120<659.745 752.255> 75 120<-6.25464 86.2546>
VStem: -20 120<88.7454 181.255> 646 120<-181.255 -88.7454>
LayerCount: 2
Fore
SplineSet
40 75 m 7
 7 75 -20 102 -20 135 c 7
 -20 169 7 195 40 195 c 7
 73 195 100 168 100 135 c 7
 100 102 73 75 40 75 c 7
706 -195 m 7
 673 -195 646 -168 646 -135 c 7
 646 -101 673 -75 706 -75 c 7
 739 -75 766 -102 766 -135 c 7
 766 -168 739 -195 706 -195 c 7
-31 -250 m 5
 409 250 l 5
 532 250 l 5
 91 -250 l 5
 -31 -250 l 5
212 -250 m 5
 652 250 l 5
 775 250 l 5
 334 -250 l 5
 212 -250 l 5
EndSplineSet
Validated: 1
EndChar

StartChar: uniE520
Encoding: 95 58656 95
Width: 379
Flags: HMW
LayerCount: 2
Fore
SplineSet
197 40 m 0
 199 39 201 39 204 39 c 0
 228 39 267 80 286 128 c 0
 294 148 299 175 299 198 c 0
 299 219 295 236 284 240 c 0
 282 241 280 241 278 241 c 0
 253 241 211 199 196 162 c 0
 186 136 181 109 181 87 c 0
 181 62 187 44 197 40 c 0
220 0 m 4
 203 0 173 6 153 32 c 1
 108 -90 l 1
 160 -90 l 2
 175 -90 175 -120 160 -120 c 0
 -65 -120 l 0
 -79 -120 -80 -90 -65 -90 c 2
 10 -90 l 1
 114 195 l 0
 115 198 120 213 120 225 c 0
 120 233 118 240 109 240 c 0
 83 240 72 207 28 135 c 0
 21 124 -6 139 1 151 c 0
 56 249 69 280 125 280 c 0
 170 280 193 271 203 235 c 1
 244 278 263 280 305 280 c 0
 341 280 380 248 380 180 c 0
 380 87 319 0 220 0 c 4
EndSplineSet
Validated: 1
EndChar

StartChar: uniE521
Encoding: 96 58657 96
Width: 440
Flags: MW
LayerCount: 2
Fore
SplineSet
80 21 m 4
 76 11 74 1 57 0 c 4
 4 0 l 4
 -6 0 0 18 4 26 c 5
 70 193 l 4
 77 211 69 221 60 221 c 4
 42 221 35 210 -11 138 c 4
 -18 127 -39 139 -33 151 c 4
 3 216 36 280 86 280 c 4
 128 280 145 266 152 240 c 5
 170 260 194 280 224 280 c 4
 254 280 273 263 278 240 c 5
 292 259 322 280 349 280 c 4
 382 280 410 254 410 219 c 4
 410 211 408 202 405 193 c 4
 358 68 l 4
 355 60 354 54 354 48 c 4
 354 40 357 34 362 34 c 4
 364 34 365 35 367 36 c 4
 389 48 404 72 419 93 c 4
 427 104 449 93 440 78 c 4
 411 27 388 -10 323 -10 c 4
 296 -10 277 5 277 31 c 4
 277 39 278 47 282 57 c 4
 334 193 l 4
 335 195 335 197 335 199 c 4
 335 209 325 213 314 213 c 4
 300 213 284 206 279 193 c 4
 214 22 l 4
 211 14 207 0 191 -1 c 5
 153 0 l 20
 134 -2 132 12 136 22 c 4
 203 193 l 4
 204 195 204 197 204 199 c 4
 204 208 195 213 183 213 c 4
 170 213 153 206 148 193 c 4
 80 21 l 4
EndSplineSet
Validated: 1
EndChar

StartChar: uniE522
Encoding: 97 58658 97
Width: 278
Flags: HMW
LayerCount: 2
Fore
SplineSet
-50 -160 m 0
 -90 -160 -130 -135 -130 -90 c 0
 -130 -55 -113 -30 -88 -30 c 0
 -63 -30 -47 -45 -47 -65 c 0
 -47 -75 -54 -83 -65 -90 c 0
 -75 -97 -75 -100 -75 -110 c 0
 -75 -120 -65 -124 -50 -124 c 0
 13 -124 16 -35 83 230 c 1
 64 230 65 230 30 230 c 0
 17 230 11 241 11 251 c 0
 11 261 17 270 28 270 c 0
 59 270 61 270 93 270 c 1
 121 374 204 440 270 440 c 0
 310 440 350 415 350 370 c 0
 350 335 333 310 308 310 c 0
 283 310 267 325 267 345 c 0
 267 355 274 363 285 370 c 0
 296 377 295 380 295 390 c 0
 295 400 285 404 270 404 c 0
 228 404 218 332 205 270 c 1
 232 270 229 270 259 270 c 0
 272 270 278 260 278 250 c 0
 278 240 272 230 259 230 c 0
 233 230 229 230 196 230 c 1
 153 -26 80 -160 -50 -160 c 0
EndSplineSet
Validated: 1
EndChar

StartChar: uniE523
Encoding: 98 58659 98
Width: 275
Flags: HMW
LayerCount: 2
Fore
SplineSet
208 231 m 0
 218 237 218 245 208 245 c 0
 179 245 153 203 143 177 c 0
 80 21 l 0
 76 11 74 1 57 0 c 0
 4 0 l 0
 -6 0 0 18 4 26 c 1
 70 189 l 0
 77 207 69 217 60 217 c 0
 42 217 35 210 -11 138 c 0
 -18 127 -39 139 -33 151 c 0
 3 216 40 275 90 275 c 0
 132 275 147 246 150 236 c 1
 162 251 182 275 217 275 c 0
 252 275 275 254 275 220 c 0
 275 181 256 165 232 165 c 0
 212 165 190 182 190 200 c 0
 190 216 196 224 208 231 c 0
EndSplineSet
Validated: 1
EndChar

StartChar: uniE524
Encoding: 99 58660 99
Width: 220
Flags: HMW
LayerCount: 2
Fore
SplineSet
80 0 m 0
 41 0 0 33 0 70 c 0
 0 92 18 108 34 108 c 0
 51 108 70 96 70 80 c 0
 70 65 61 53 54 46 c 1
 62 35 69 30 85 30 c 0
 113 30 140 45 140 70 c 0
 140 100 116 103 90 120 c 0
 57 141 32 172 32 205 c 0
 32 252 72 280 132 280 c 0
 177 280 220 253 220 220 c 0
 220 199 204 180 182 180 c 0
 166 180 147 195 147 214 c 0
 147 219 151 225 154 231 c 1
 146 241 135 250 122 250 c 0
 103 250 82 239 82 220 c 0
 82 193 129 175 152 160 c 0
 186 137 200 115 200 85 c 0
 200 26 156 0 80 0 c 0
EndSplineSet
Validated: 1
EndChar

StartChar: uniE525
Encoding: 100 58661 100
Width: 232
Flags: HMW
LayerCount: 2
Fore
SplineSet
-10 3 m 0
 -22 -6 -34 16 -23 26 c 0
 153 219 l 0
 138 218 126 213 105 213 c 0
 98 213 86 219 76 218 c 0
 65 217 47 173 34 162 c 0
 20 150 6 154 20 187 c 0
 41 238 38 251 44 267 c 1
 79 265 89 260 126 260 c 0
 184 260 189 271 207 271 c 0
 211 271 215 271 220 270 c 0
 235 268 233 254 224 245 c 0
 66 78 l 0
 65 75 64 72 64 70 c 0
 64 68 65 67 66 67 c 0
 69 67 76 70 86 70 c 0
 99 70 119 65 147 44 c 0
 166 29 179 64 166 64 c 0
 148 64 130 72 130 93 c 0
 130 111 143 128 161 128 c 0
 181 128 199 115 199 73 c 0
 199 35 170 -4 129 -4 c 0
 126 -4 103 -4 100 -4 c 0
 56 2 50 23 31 23 c 0
 19 23 6 15 -10 3 c 0
EndSplineSet
Validated: 1
EndChar

StartChar: uniE529
Encoding: 101 58665 101
Width: 703
Flags: HMW
LayerCount: 2
Fore
SplineSet
522 40 m 0
 524.179123831 39.0525548563 526.555731167 38.5988184777 529.0907001 38.5988184777 c 0
 553.311569742 38.5988184777 591.989634802 80.0214592618 611 128 c 0
 618.801273837 147.763227053 623.897664408 174.829638922 623.897664408 197.52305288 c 0
 623.897664408 218.46369363 619.558131706 235.680764302 609 240 c 0
 607.059714009 240.759242344 604.934395026 241.11995209 602.659464452 241.11995209 c 0
 577.96754404 241.11995209 535.650235832 198.625589581 521 162 c 0
 510.665333312 135.693575703 506.068143327 108.945807045 506.068143327 87.1471403297 c 0
 506.068143327 62.5417301443 511.925393958 44.2419393862 522 40 c 0
197 40 m 0
 199.179123831 39.0525548563 201.555731167 38.5988184777 204.0907001 38.5988184777 c 0
 228.311569742 38.5988184777 266.989634802 80.0214592618 286 128 c 0
 293.801273837 147.763227053 298.897664408 174.829638922 298.897664408 197.52305288 c 0
 298.897664408 218.46369363 294.558131706 235.680764302 284 240 c 0
 282.059714009 240.759242344 279.934395026 241.11995209 277.659464452 241.11995209 c 0
 252.96754404 241.11995209 210.650235832 198.625589581 196 162 c 0
 185.665333312 135.693575703 181.068143327 108.945807045 181.068143327 87.1471403297 c 0
 181.068143327 62.5417301443 186.925393958 44.2419393862 197 40 c 0
200 0 m 0
 183 0 173 6 153 32 c 1
 108 -90 l 1
 160 -90 l 2
 175 -90 175 -120 160 -120 c 2
 -65 -120 l 2
 -79 -120 -80 -90 -65 -90 c 2
 10 -90 l 1
 114 195 l 2
 115.167116963 197.917792406 120.420719938 212.754502351 120.420719938 224.605732511 c 0
 120.420719938 233.06305846 117.745271893 240 109 240 c 0
 83 240 72 207 28 135 c 0
 21 124 -6 139 1 151 c 0
 56 249 69 280 125 280 c 0
 170 280 193 271 203 235 c 1
 244 278 263 280 305 280 c 0
 331 280 358 264 371 230 c 1
 395 267 413 280 450 280 c 0
 495 280 518 271 528 235 c 1
 569 278 588 280 630 280 c 0
 656 280 683 264 696 230 c 1
 720 267 738 280 775 280 c 0
 820 280 843 271 853 235 c 1
 894 278 913 280 955 280 c 0
 981 280 1008 264 1021 230 c 1
 1045 267 1063 280 1100 280 c 0
 1145 280 1168 271 1178 235 c 1
 1219 278 1238 280 1280 280 c 0
 1316 280 1355 248 1355 180 c 0
 1355 87 1274 0 1175 0 c 0
 1158 0 1148 6 1128 32 c 1
 1083 -90 l 1
 1135 -90 l 2
 1150 -90 1150 -120 1135 -120 c 2
 910 -120 l 2
 896 -120 895 -90 910 -90 c 2
 985 -90 l 1
 1089 195 l 2
 1090.16711696 197.917792406 1095.42071994 212.754502351 1095.42071994 224.605732511 c 0
 1095.42071994 233.06305846 1092.74527189 240 1084 240 c 0
 1064 240 1053 221 1030 181 c 0
 1030 181 1030 180 1030 180 c 0
 1030 87 949 0 850 0 c 0
 833 0 823 6 803 32 c 1
 758 -90 l 1
 810 -90 l 2
 825 -90 825 -120 810 -120 c 2
 585 -120 l 2
 571 -120 570 -90 585 -90 c 2
 660 -90 l 1
 764 195 l 2
 765.167116963 197.917792406 770.420719938 212.754502351 770.420719938 224.605732511 c 0
 770.420719938 233.06305846 767.745271893 240 759 240 c 0
 739 240 728 221 705 181 c 0
 705 181 705 180 705 180 c 0
 705 87 624 0 525 0 c 0
 508 0 498 6 478 32 c 1
 433 -90 l 1
 485 -90 l 2
 500 -90 500 -120 485 -120 c 2
 260 -120 l 2
 246 -120 245 -90 260 -90 c 2
 335 -90 l 1
 439 195 l 2
 440.167116963 197.917792406 445.420719938 212.754502351 445.420719938 224.605732511 c 0
 445.420719938 233.06305846 442.745271893 240 434 240 c 0
 414 240 403 221 380 181 c 0
 380 181 380 180 380 180 c 0
 380 87 299 0 200 0 c 0
1172 40 m 0
 1174.17912383 39.0525548563 1176.55573117 38.5988184777 1179.0907001 38.5988184777 c 0
 1203.31156974 38.5988184777 1241.9896348 80.0214592618 1261 128 c 0
 1268.80127384 147.763227053 1273.89766441 174.829638922 1273.89766441 197.52305288 c 0
 1273.89766441 218.46369363 1269.55813171 235.680764302 1259 240 c 0
 1257.05971401 240.759242344 1254.93439503 241.11995209 1252.65946445 241.11995209 c 0
 1227.96754404 241.11995209 1185.65023583 198.625589581 1171 162 c 0
 1160.66533331 135.693575703 1156.06814333 108.945807045 1156.06814333 87.1471403297 c 0
 1156.06814333 62.5417301443 1161.92539396 44.2419393862 1172 40 c 0
847 40 m 0
 849.179123831 39.0525548563 851.555731167 38.5988184777 854.0907001 38.5988184777 c 0
 878.311569742 38.5988184777 916.989634802 80.0214592618 936 128 c 0
 943.801273837 147.763227053 948.897664408 174.829638922 948.897664408 197.52305288 c 0
 948.897664408 218.46369363 944.558131706 235.680764302 934 240 c 0
 932.059714009 240.759242344 929.934395026 241.11995209 927.659464452 241.11995209 c 0
 902.96754404 241.11995209 860.650235832 198.625589581 846 162 c 0
 835.665333312 135.693575703 831.068143327 108.945807045 831.068143327 87.1471403297 c 0
 831.068143327 62.5417301443 836.925393958 44.2419393862 847 40 c 0
EndSplineSet
Validated: 1
EndChar

StartChar: uniE52A
Encoding: 102 58666 102
Width: 563
Flags: W
HStem: -120 30<-74.2249 10 108 169.668 250.775 335 433 494.668 575.775 660 758 819.668> 0 38.5988<191.014 237.319 516.014 562.319 841.014 887.319> 240 40<80.1149 147.5 239.117 318 404.386 472.5 564.117 643 729.386 797.5 889.117 973>
VStem: 120.421 60.6474<87.1471 224.606> 298.898 81.1023<108.679 217.246> 445.421 60.6474<87.1471 224.606> 623.898 81.1023<108.679 217.246> 770.421 60.6474<87.1471 224.606> 948.898 81.1023<108.462 239.669>
LayerCount: 2
Fore
SplineSet
850 0 m 0
 833 0 823 6 803 32 c 1
 758 -90 l 1
 810 -90 l 2
 825 -90 825 -120 810 -120 c 2
 585 -120 l 2
 571 -120 570 -90 585 -90 c 2
 660 -90 l 1
 764 195 l 2
 765.167116963 197.917792406 770.420719938 212.754502351 770.420719938 224.605732511 c 0
 770.420719938 233.06305846 767.745271893 240 759 240 c 0
 739 240 728 221 705 181 c 0
 705 181 705 180 705 180 c 0
 705 87 624 0 525 0 c 0
 508 0 498 6 478 32 c 1
 433 -90 l 1
 485 -90 l 2
 500 -90 500 -120 485 -120 c 2
 260 -120 l 2
 246 -120 245 -90 260 -90 c 2
 335 -90 l 1
 439 195 l 2
 440.167116963 197.917792406 445.420719938 212.754502351 445.420719938 224.605732511 c 0
 445.420719938 233.06305846 442.745271893 240 434 240 c 0
 414 240 403 221 380 181 c 0
 380 181 380 180 380 180 c 0
 380 87 299 0 200 0 c 0
 183 0 173 6 153 32 c 1
 108 -90 l 1
 160 -90 l 2
 175 -90 175 -120 160 -120 c 2
 -65 -120 l 2
 -79 -120 -80 -90 -65 -90 c 2
 10 -90 l 1
 114 195 l 2
 115.167116963 197.917792406 120.420719938 212.754502351 120.420719938 224.605732511 c 0
 120.420719938 233.06305846 117.745271893 240 109 240 c 0
 83 240 72 207 28 135 c 0
 21 124 -6 139 1 151 c 0
 56 249 69 280 125 280 c 0
 170 280 193 271 203 235 c 1
 244 278 263 280 305 280 c 0
 331 280 358 264 371 230 c 1
 395 267 413 280 450 280 c 0
 495 280 518 271 528 235 c 1
 569 278 588 280 630 280 c 0
 656 280 683 264 696 230 c 1
 720 267 738 280 775 280 c 0
 820 280 843 271 853 235 c 1
 894 278 913 280 955 280 c 0
 991 280 1030 248 1030 180 c 0
 1030 87 949 0 850 0 c 0
847 40 m 0
 849.179123831 39.0525548563 851.555731167 38.5988184777 854.0907001 38.5988184777 c 0
 878.311569742 38.5988184777 916.989634802 80.0214592618 936 128 c 0
 943.801273837 147.763227053 948.897664408 174.829638922 948.897664408 197.52305288 c 0
 948.897664408 218.46369363 944.558131706 235.680764302 934 240 c 0
 932.059714009 240.759242344 929.934395026 241.11995209 927.659464452 241.11995209 c 0
 902.96754404 241.11995209 860.650235832 198.625589581 846 162 c 0
 835.665333312 135.693575703 831.068143327 108.945807045 831.068143327 87.1471403297 c 0
 831.068143327 62.5417301443 836.925393958 44.2419393862 847 40 c 0
522 40 m 0
 524.179123831 39.0525548563 526.555731167 38.5988184777 529.0907001 38.5988184777 c 0
 553.311569742 38.5988184777 591.989634802 80.0214592618 611 128 c 0
 618.801273837 147.763227053 623.897664408 174.829638922 623.897664408 197.52305288 c 0
 623.897664408 218.46369363 619.558131706 235.680764302 609 240 c 0
 607.059714009 240.759242344 604.934395026 241.11995209 602.659464452 241.11995209 c 0
 577.96754404 241.11995209 535.650235832 198.625589581 521 162 c 0
 510.665333312 135.693575703 506.068143327 108.945807045 506.068143327 87.1471403297 c 0
 506.068143327 62.5417301443 511.925393958 44.2419393862 522 40 c 0
197 40 m 0
 199.179123831 39.0525548563 201.555731167 38.5988184777 204.0907001 38.5988184777 c 0
 228.311569742 38.5988184777 266.989634802 80.0214592618 286 128 c 0
 293.801273837 147.763227053 298.897664408 174.829638922 298.897664408 197.52305288 c 0
 298.897664408 218.46369363 294.558131706 235.680764302 284 240 c 0
 282.059714009 240.759242344 279.934395026 241.11995209 277.659464452 241.11995209 c 0
 252.96754404 241.11995209 210.650235832 198.625589581 196 162 c 0
 185.665333312 135.693575703 181.068143327 108.945807045 181.068143327 87.1471403297 c 0
 181.068143327 62.5417301443 186.925393958 44.2419393862 197 40 c 0
EndSplineSet
Validated: 1
EndChar

StartChar: uniE52B
Encoding: 103 58667 103
Width: 703
Flags: HMW
LayerCount: 2
Fore
SplineSet
200 0 m 0
 183 0 173 6 153 32 c 1
 108 -90 l 1
 160 -90 l 2
 175 -90 175 -120 160 -120 c 2
 -65 -120 l 2
 -79 -120 -80 -90 -65 -90 c 2
 10 -90 l 1
 114 195 l 2
 115.167116963 197.917792406 120.420719938 212.754502351 120.420719938 224.605732511 c 0
 120.420719938 233.06305846 117.745271893 240 109 240 c 0
 83 240 72 207 28 135 c 0
 21 124 -6 139 1 151 c 0
 56 249 69 280 125 280 c 0
 170 280 193 271 203 235 c 1
 244 278 263 280 305 280 c 0
 331 280 358 264 371 230 c 1
 395 267 413 280 450 280 c 0
 495 280 518 271 528 235 c 1
 569 278 588 280 630 280 c 0
 666 280 705 248 705 180 c 0
 705 87 624 0 525 0 c 0
 508 0 498 6 478 32 c 1
 433 -90 l 1
 485 -90 l 2
 500 -90 500 -120 485 -120 c 2
 260 -120 l 2
 246 -120 245 -90 260 -90 c 2
 335 -90 l 1
 439 195 l 2
 440.167116963 197.917792406 445.420719938 212.754502351 445.420719938 224.605732511 c 0
 445.420719938 233.06305846 442.745271893 240 434 240 c 0
 414 240 403 221 380 181 c 0
 380 181 380 180 380 180 c 0
 380 87 299 0 200 0 c 0
197 40 m 0
 199.179123831 39.0525548563 201.555731167 38.5988184777 204.0907001 38.5988184777 c 0
 228.311569742 38.5988184777 266.989634802 80.0214592618 286 128 c 0
 293.801273837 147.763227053 298.897664408 174.829638922 298.897664408 197.52305288 c 0
 298.897664408 218.46369363 294.558131706 235.680764302 284 240 c 0
 282.059714009 240.759242344 279.934395026 241.11995209 277.659464452 241.11995209 c 0
 252.96754404 241.11995209 210.650235832 198.625589581 196 162 c 0
 185.665333312 135.693575703 181.068143327 108.945807045 181.068143327 87.1471403297 c 0
 181.068143327 62.5417301443 186.925393958 44.2419393862 197 40 c 0
522 40 m 0
 524.179123831 39.0525548563 526.555731167 38.5988184777 529.0907001 38.5988184777 c 0
 553.311569742 38.5988184777 591.989634802 80.0214592618 611 128 c 0
 618.801273837 147.763227053 623.897664408 174.829638922 623.897664408 197.52305288 c 0
 623.897664408 218.46369363 619.558131706 235.680764302 609 240 c 0
 607.059714009 240.759242344 604.934395026 241.11995209 602.659464452 241.11995209 c 0
 577.96754404 241.11995209 535.650235832 198.625589581 521 162 c 0
 510.665333312 135.693575703 506.068143327 108.945807045 506.068143327 87.1471403297 c 0
 506.068143327 62.5417301443 511.925393958 44.2419393862 522 40 c 0
EndSplineSet
Validated: 1
EndChar

StartChar: uniE52C
Encoding: 104 58668 104
Width: 811
Flags: HMW
LayerCount: 2
Fore
SplineSet
429 119 m 0
 480 232 500 280 556 280 c 0
 601 280 624 271 634 235 c 1
 675 278 694 280 736 280 c 0
 772 280 811 248 811 180 c 0
 811 87 730 0 631 0 c 0
 614 0 604 6 584 32 c 1
 539 -90 l 1
 591 -90 l 2
 606 -90 606 -120 591 -120 c 2
 366 -120 l 2
 352 -120 351 -90 366 -90 c 2
 441 -90 l 1
 545 195 l 2
 546.167116963 197.917792406 551.420719938 212.754502351 551.420719938 224.605732511 c 0
 551.420719938 233.06305846 548.745271893 240 540 240 c 0
 514 240 491 175 454 100 c 0
 423 37 388 -10 323 -10 c 0
 295.96461562 -10 276.685848474 4.31990873934 276.685848474 30.6552962356 c 0
 276.685848474 38.4136929968 278.359032859 47.2149008096 282 57 c 2
 334 193 l 2
 334.687448544 195.062345631 335.007330587 196.961328373 335.007330587 198.698285174 c 0
 335.007330587 208.224115412 325.386390673 212.876768553 314.009865299 212.876768553 c 0
 300.302784706 212.876768553 284.047157224 206.122608782 279 193 c 2
 214 22 l 2
 211 14 207 0 191 -1 c 2
 153 0 l 2
 134 -2 132 12 136 22 c 2
 203 193 l 2
 203.698722351 195.018531237 204.023750859 196.886379473 204.023750859 198.6021409 c 0
 204.023750859 208.040661137 194.187819777 212.876768553 182.617370253 212.876768553 c 0
 169.199127766 212.876768553 153.448127054 206.372675496 148 193 c 2
 80 21 l 2
 76 11 74 1 57 0 c 2
 4 0 l 2
 -6 0 0 18 4 26 c 2
 70 193 l 2
 77 211 69 221 60 221 c 0
 42 221 35 210 -11 138 c 0
 -18 127 -39 139 -33 151 c 0
 3 216 36 280 86 280 c 0
 128 280 145 266 152 240 c 1
 170 260 194 280 224 280 c 0
 254 280 273 263 278 240 c 1
 292 259 322 280 349 280 c 0
 382.297060451 280 409.658220776 253.618221661 409.658220776 218.530504648 c 0
 409.658220776 210.41331474 408.193901764 201.830198995 405 193 c 2
 358 68 l 2
 355.211869734 60.3326417674 353.881302664 53.2726015335 353.881302664 47.6241881024 c 0
 353.881302664 39.5840041338 356.577277218 34.4040367054 361.602949871 34.4040367054 c 0
 363.177144158 34.4040367054 364.979913018 34.9122608557 367 36 c 0
 389 48 418 94 429 119 c 0
628 40 m 0
 630.179123831 39.0525548563 632.555731167 38.5988184777 635.0907001 38.5988184777 c 0
 659.311569742 38.5988184777 697.989634802 80.0214592618 717 128 c 0
 724.801273837 147.763227053 729.897664408 174.829638922 729.897664408 197.52305288 c 0
 729.897664408 218.46369363 725.558131706 235.680764302 715 240 c 0
 713.059714009 240.759242344 710.934395026 241.11995209 708.659464452 241.11995209 c 0
 683.96754404 241.11995209 641.650235832 198.625589581 627 162 c 0
 616.665333312 135.693575703 612.068143327 108.945807045 612.068143327 87.1471403297 c 0
 612.068143327 62.5417301443 617.925393958 44.2419393862 628 40 c 0
EndSplineSet
Validated: 1
EndChar

StartChar: uniE52D
Encoding: 105 58669 105
Width: 351
Flags: HMW
LayerCount: 2
Fore
SplineSet
80 21 m 0
 76 11 74 1 57 0 c 0
 4 0 l 0
 -6 0 0 18 4 26 c 1
 70 193 l 0
 77 211 69 221 60 221 c 0
 42 221 35 210 -11 138 c 0
 -18 127 -39 139 -33 151 c 0
 3 216 36 280 86 280 c 0
 128 280 145 266 152 240 c 1
 170 260 194 280 224 280 c 0
 254 280 273 263 278 240 c 1
 292 259 322 280 349 280 c 0
 382.297060451 280 409.658220776 253.618221661 409.658220776 218.530504648 c 0
 409.658220776 210.41331474 408.193901764 201.830198995 405 193 c 0
 358 68 l 0
 355.211869734 60.3326417674 353.881302664 53.2726015335 353.881302664 47.6241881024 c 0
 353.881302664 39.5840041338 356.577277218 34.4040367054 361.602949871 34.4040367054 c 0
 363.177144158 34.4040367054 364.979913018 34.9122608557 367 36 c 0
 389 48 404 72 419 93 c 0
 427 104 449 93 440 78 c 0
 411 27 388 -10 323 -10 c 0
 295.96461562 -10 276.685848474 4.31990873934 276.685848474 30.6552962356 c 0
 276.685848474 38.4136929968 278.359032859 47.2149008096 282 57 c 0
 334 193 l 0
 334.687448544 195.062345631 335.007330587 196.961328373 335.007330587 198.698285174 c 0
 335.007330587 208.224115412 325.386390673 212.876768553 314.009865299 212.876768553 c 0
 300.302784706 212.876768553 284.047157224 206.122608782 279 193 c 0
 214 22 l 0
 211 14 207 0 191 -1 c 1
 153 0 l 16
 134 -2 132 12 136 22 c 0
 203 193 l 0
 203.698722351 195.018531237 204.023750859 196.886379473 204.023750859 198.6021409 c 0
 204.023750859 208.040661137 194.187819777 212.876768553 182.617370253 212.876768553 c 0
 169.199127766 212.876768553 153.448127054 206.372675496 148 193 c 0
 80 21 l 0
393 -160 m 0
 353 -160 313 -135 313 -90 c 0
 313 -55 330 -30 355 -30 c 0
 380 -30 396 -45 396 -65 c 0
 396 -75 389 -83 378 -90 c 0
 368 -97 368 -100 368 -110 c 0
 368 -120 378 -124 393 -124 c 0
 456 -124 459 -35 526 230 c 1
 507 230 508 230 473 230 c 0
 460.239470207 230 453.992185238 240.421191718 453.992185238 250.625180963 c 0
 453.992185238 260.412503619 459.73968741 270 471 270 c 0
 502 270 504 270 536 270 c 1
 564 374 647 440 713 440 c 0
 753 440 793 415 793 370 c 0
 793 335 776 310 751 310 c 0
 726 310 710 325 710 345 c 0
 710 355 717 363 728 370 c 0
 739 377 738 380 738 390 c 0
 738 400 728 404 713 404 c 0
 671 404 661 332 648 270 c 1
 675 270 672 270 702 270 c 0
 715 270 721.5 260 721.5 250 c 0
 721.5 240 715 230 702 230 c 0
 676 230 672 230 639 230 c 1
 596 -26 523 -160 393 -160 c 0
EndSplineSet
Validated: 1
EndChar

StartChar: uniE52F
Encoding: 106 58671 106
Width: 617
Flags: HMW
LayerCount: 2
Fore
SplineSet
351 230 m 9
 196 230 l 1
 153 -26 80 -160 -50 -160 c 0
 -90 -160 -130 -135 -130 -90 c 0
 -130 -55 -113 -30 -88 -30 c 0
 -63 -30 -47 -45 -47 -65 c 0
 -47 -75 -54 -83 -65 -90 c 0
 -75 -97 -75 -100 -75 -110 c 0
 -75 -120 -65 -124 -50 -124 c 0
 13 -124 16 -35 83 230 c 1
 64 230 65 230 30 230 c 0
 17.239470207 230 10.992185238 240.421191718 10.992185238 250.625180963 c 0
 10.992185238 260.412503619 16.7396874095 270 28 270 c 0
 59 270 61 270 93 270 c 1
 121 374 204 440 270 440 c 0
 310 440 350 415 350 370 c 0
 350 335 333 310 308 310 c 0
 283 310 267 325 267 345 c 0
 267 355 274 363 285 370 c 0
 296 377 295 380 295 390 c 0
 295 400 285 404 270 404 c 0
 228 404 218 333 205 271 c 1
 360 270 l 1
 388 374 471 440 537 440 c 0
 577 440 617 415 617 370 c 0
 617 335 600 310 575 310 c 0
 550 310 534 325 534 345 c 0
 534 355 541 363 552 370 c 0
 563 377 562 380 562 390 c 0
 562 400 552 404 537 404 c 0
 495 404 485 332 472 270 c 1
 499 270 496 270 526 270 c 0
 539 270 545.5 260 545.5 250 c 0
 545.5 240 539 230 526 230 c 0
 500 230 496 230 463 230 c 1
 420 -26 347 -160 217 -160 c 0
 177 -160 137 -135 137 -90 c 0
 137 -55 154 -30 179 -30 c 0
 204 -30 220 -45 220 -65 c 0
 220 -75 213 -83 202 -90 c 0
 192 -97 192 -100 192 -110 c 0
 192 -120 202 -124 217 -124 c 0
 280 -124 284 -35 351 230 c 9
EndSplineSet
Validated: 1
EndChar

StartChar: uniE530
Encoding: 107 58672 107
Width: 351
Flags: HMW
LayerCount: 2
Fore
SplineSet
204 270 m 9
 360 270 l 1
 388 374 471 440 537 440 c 0
 577 440 617 415 617 370 c 0
 617 335 600 310 575 310 c 0
 550 310 534 325 534 345 c 0
 534 355 541 363 552 370 c 0
 563 377 562 380 562 390 c 0
 562 400 552 404 537 404 c 0
 495 404 485 333 472 271 c 1
 627 270 l 1
 655 374 738 440 804 440 c 0
 844 440 884 415 884 370 c 0
 884 335 867 310 842 310 c 0
 817 310 801 325 801 345 c 0
 801 355 808 363 819 370 c 0
 830 377 829 380 829 390 c 0
 829 400 819 404 804 404 c 0
 762 404 752 332 739 270 c 1
 766 270 763 270 793 270 c 0
 806 270 812.5 260 812.5 250 c 0
 812.5 240 806 230 793 230 c 0
 767 230 763 230 730 230 c 1
 687 -26 614 -160 484 -160 c 0
 444 -160 404 -135 404 -90 c 0
 404 -55 421 -30 446 -30 c 0
 471 -30 487 -45 487 -65 c 0
 487 -75 480 -83 469 -90 c 0
 459 -97 459 -100 459 -110 c 0
 459 -120 469 -124 484 -124 c 0
 547 -124 551 -35 618 230 c 9
 463 230 l 1
 420 -26 347 -160 217 -160 c 0
 177 -160 137 -135 137 -90 c 0
 137 -55 154 -30 179 -30 c 0
 204 -30 220 -45 220 -65 c 0
 220 -75 213 -83 202 -90 c 0
 192 -97 192 -100 192 -110 c 0
 192 -120 202 -124 217 -124 c 0
 280 -124 283 -35 351 230 c 9
 196 230 l 1
 153 -26 80 -160 -50 -160 c 0
 -90 -160 -130 -135 -130 -90 c 0
 -130 -55 -113 -30 -88 -30 c 0
 -63 -30 -47 -45 -47 -65 c 0
 -47 -75 -54 -83 -65 -90 c 0
 -75 -97 -75 -100 -75 -110 c 0
 -75 -120 -65 -124 -50 -124 c 0
 13 -124 16 -35 83 230 c 1
 64 230 65 230 30 230 c 0
 17.239470207 230 10.992185238 240.421191718 10.992185238 250.625180963 c 0
 10.992185238 260.412503619 16.7396874095 270 28 270 c 0
 59 270 61 270 93 270 c 1
 121 374 204 440 270 440 c 0
 310 440 350 415 350 370 c 0
 350 335 333 310 308 310 c 0
 283 310 267 325 267 345 c 0
 267 355 274 363 285 370 c 0
 296 377 295 380 295 390 c 0
 295 400 285 404 270 404 c 0
 228 404 217 332 204 270 c 9
EndSplineSet
Validated: 1
EndChar

StartChar: uniE531
Encoding: 108 58673 108
Width: 617
Flags: HMW
LayerCount: 2
Fore
SplineSet
472 271 m 9
 628 270 l 1
 656 374 739 440 805 440 c 0
 845 440 885 415 885 370 c 0
 885 335 868 310 843 310 c 0
 818 310 802 325 802 345 c 0
 802 355 809 363 820 370 c 0
 831 377 830 380 830 390 c 0
 830 400 820 404 805 404 c 0
 763 404 753 333 740 271 c 1
 895 270 l 1
 923 374 1006 440 1072 440 c 0
 1112 440 1152 415 1152 370 c 0
 1152 335 1135 310 1110 310 c 0
 1085 310 1069 325 1069 345 c 0
 1069 355 1076 363 1087 370 c 0
 1098 377 1097 380 1097 390 c 0
 1097 400 1087 404 1072 404 c 0
 1030 404 1020 332 1007 270 c 1
 1034 270 1031 270 1061 270 c 0
 1074 270 1080.5 260 1080.5 250 c 0
 1080.5 240 1074 230 1061 230 c 0
 1035 230 1031 230 998 230 c 1
 955 -26 882 -160 752 -160 c 0
 712 -160 672 -135 672 -90 c 0
 672 -55 689 -30 714 -30 c 0
 739 -30 755 -45 755 -65 c 0
 755 -75 748 -83 737 -90 c 0
 727 -97 727 -100 727 -110 c 0
 727 -120 737 -124 752 -124 c 0
 815 -124 819 -35 886 230 c 9
 731 230 l 1
 688 -26 615 -160 485 -160 c 0
 445 -160 405 -135 405 -90 c 0
 405 -55 422 -30 447 -30 c 0
 472 -30 488 -45 488 -65 c 0
 488 -75 481 -83 470 -90 c 0
 460 -97 460 -100 460 -110 c 0
 460 -120 470 -124 485 -124 c 0
 548 -124 551 -36 618 230 c 9
 463 230 l 1
 420 -26 347 -160 217 -160 c 0
 177 -160 137 -135 137 -90 c 0
 137 -55 154 -30 179 -30 c 0
 204 -30 220 -45 220 -65 c 0
 220 -75 213 -83 202 -90 c 0
 192 -97 192 -100 192 -110 c 0
 192 -120 202 -124 217 -124 c 0
 280 -124 284 -35 351 230 c 9
 196 230 l 1
 153 -26 80 -160 -50 -160 c 0
 -90 -160 -130 -135 -130 -90 c 0
 -130 -55 -113 -30 -88 -30 c 0
 -63 -30 -47 -45 -47 -65 c 0
 -47 -75 -54 -83 -65 -90 c 0
 -75 -97 -75 -100 -75 -110 c 0
 -75 -120 -65 -124 -50 -124 c 0
 13 -124 16 -35 83 230 c 1
 64 230 65 230 30 230 c 0
 17.239470207 230 10.992185238 240.421191718 10.992185238 250.625180963 c 0
 10.992185238 260.412503619 16.7396874095 270 28 270 c 0
 59 270 61 270 93 270 c 1
 121 374 204 440 270 440 c 0
 310 440 350 415 350 370 c 0
 350 335 333 310 308 310 c 0
 283 310 267 325 267 345 c 0
 267 355 274 363 285 370 c 0
 296 377 295 380 295 390 c 0
 295 400 285 404 270 404 c 0
 228 404 218 333 205 271 c 1
 360 270 l 1
 388 374 471 440 537 440 c 0
 577 440 617 415 617 370 c 0
 617 335 600 310 575 310 c 0
 550 310 534 325 534 345 c 0
 534 355 541 363 552 370 c 0
 563 377 562 380 562 390 c 0
 562 400 552 404 537 404 c 0
 495 404 485 332 472 271 c 9
EndSplineSet
Validated: 1
EndChar

StartChar: uniE539
Encoding: 109 58681 109
Width: 351
Flags: HMW
LayerCount: 2
Fore
SplineSet
80 0 m 0xd8
 41 0 0 33 0 70 c 0xe8
 0 92 14 108 30 108 c 0xd8
 47 108 67 100 67 84 c 0xe8
 67 69 62 55 55 48 c 1
 60 34 69 30 85 30 c 0
 113 30 140 45 140 70 c 0
 140 100 120 107 94 124 c 0
 61 145 30 167 30 200 c 0
 30 247 70 280 130 280 c 0
 175 280 218 253 218 220 c 0
 218 199 202 180 180 180 c 0
 163.575188443 180 145.315176651 194.681601887 145.315176651 213.518742217 c 0
 145.315176651 218.765893239 146.732008255 224.335480975 150 230 c 1
 142 240 133 250 120 250 c 0
 101 250 80 239 80 220 c 0
 80 193 127 175 150 160 c 0
 184 137 200 120 200 90 c 0
 200 26 156 0 80 0 c 0xd8
494 3 m 0
 482 -6 470 16 481 26 c 0
 655 217 l 0
 647.065121876 221.231935 637.451249329 222.385713558 625.122178884 222.385713558 c 0
 614.144520003 222.385713558 601.014276252 221.471008125 585 221 c 0
 574 221 554 173 541 162 c 0
 527 150 511 153 524 187 c 0
 543 238 542 251 548 267 c 1
 580.854598393 264.712654542 605.061346797 263.852204333 623.335584921 263.852204333 c 0
 678.854023456 263.852204333 679.616120157 271.794054171 701.762784585 271.794054171 c 0
 707.383128795 271.794054171 714.380713088 271.282571588 724 270 c 0
 739 268 737 254 728 245 c 0
 574 82 l 0
 571.290722326 77.5296918374 570.067832218 74.1420610385 570.067832218 71.5487518924 c 0
 570.067832218 54.9981455171 619.876699814 70.8006196048 651 44 c 0
 660 36 672 52 668 64 c 0
 661 84 629 65 629 100 c 0
 629 115 645 130 661 130 c 0
 681 130 699 117 699 75 c 0
 699 35.6904170379 666.82658183 2.81551770962 623.631918047 2.81551770962 c 0
 621.774432159 2.81551770962 619.896565457 2.87631094845 618 3 c 0
 574.626134889 6.18925478761 553.222377354 17.5155864555 532.50873405 17.5155864555 c 0
 520.748265557 17.5155864555 509.210259784 13.8644712743 494 3 c 0
182 -160 m 0
 142 -160 102 -135 102 -90 c 0
 102 -55 119 -30 144 -30 c 0
 169 -30 185 -45 185 -65 c 0
 185 -75 178 -83 167 -90 c 0
 157 -97 165 -100 165 -110 c 0
 165 -120 167 -124 182 -124 c 0
 245 -124 248 -35 315 230 c 1
 296 230 297 230 262 230 c 0
 249.239470207 230 242.992185238 240.421191718 242.992185238 250.625180963 c 0
 242.992185238 260.412503619 248.73968741 270 260 270 c 0
 291 270 293 270 325 270 c 1
 353 374 436 440 502 440 c 0
 542 440 582 415 582 370 c 0
 582 335 565 310 540 310 c 0
 515 310 499 325 499 345 c 0
 499 355 506 363 517 370 c 0
 528 377 527 380 527 390 c 0
 527 400 517 404 502 404 c 0
 460 404 450 332 437 270 c 1
 464 270 461 270 491 270 c 0
 504 270 510.5 260 510.5 250 c 0
 510.5 240 504 230 491 230 c 0
 465 230 461 230 428 230 c 1
 385 -26 312 -160 182 -160 c 0
EndSplineSet
Validated: 1
EndChar

StartChar: uniE566
Encoding: 110 58726 110
Width: 509
Flags: HMW
LayerCount: 2
Fore
SplineSet
310 265 m 1
 183 258 l 1
 126 74 l 0
 125 70 124 67 124 63 c 0
 124 51 132 42 144 42 c 0
 176 42 230 60 254 80 c 9
 310 265 l 1
242 40 m 1
 192 9 164 -5 120 -5 c 0
 72 -5 52 26 52 57 c 0
 52 64 53 72 55 79 c 0
 110 258 l 1
 5 258 l 1
 5 290 l 1
 120 290 l 1
 142 364 l 1
 231 410 l 1
 193 290 l 1
 345 300 l 1
 367 300 370 281 370 255 c 1
 390 281 423 296 455 296 c 0
 488 296 508 275 508 247 c 0
 508 223 490 202 468 202 c 0
 447 202 430 214 430 233 c 0
 430 249 431 253 439 270 c 1
 402 260 378 241 368 216 c 0
 302 0 l 1
 230 0 l 1
 242 40 l 1
EndSplineSet
Validated: 1
EndChar

StartChar: uniE567
Encoding: 111 58727 111
Width: 437
Flags: W
HStem: -3 72<49.5596 110.739> 0 49<319.775 397.094> 141 71<327.059 386.441> 161 47<36.904 118.027>
VStem: 0 24<64.6579 145.71> 413 24<63.9568 143.617>
LayerCount: 2
Fore
SplineSet
368 49 m 0x5c
 396 49 413 69 413 106 c 0
 413 136 402 146 387 157 c 1
 375 145 368 141 357 141 c 0
 338 141 323 159 323 176 c 0
 324 196 345 212 356 212 c 0
 401 212 437 183 437 108 c 0
 437 69 419 41 396 21 c 0
 382 8 362 0 343 0 c 0x6c
 323 0 295 7 275 21 c 1
 113 143 l 1
 94 156 85 161 70 161 c 0
 41 161 24 142 24 103 c 0
 24 74 34 64 49 53 c 1
 61 65 69 69 80 69 c 0
 98 69 114 51 114 32 c 0
 114 11 97 -1 81 -3 c 1x9c
 67 -3 44 6 28 23 c 1
 10 45 0 69 0 102 c 0
 0 141 18 169 40 189 c 0
 55 202 77 208 96 208 c 0
 116 207 141 204 161 190 c 1
 323 68 l 1
 342 55 353 49 368 49 c 0x5c
EndSplineSet
Validated: 1
EndChar

StartChar: uniE569
Encoding: 112 58729 112
Width: 437
Flags: HMW
LayerCount: 2
Fore
SplineSet
77 -3 m 0
 33 -3 0 54 0 102 c 0
 0 141 18 169 40 189 c 0
 55 202 75 208 94 208 c 0
 114 207 137 204 157 190 c 1
 203 154 l 1
 203 259 l 1
 233 259 l 1
 233 131 l 1
 325 60 l 1
 344 47 359 37 374 37 c 0
 402 37 423 69 423 106 c 0
 423 136 416 150 401 161 c 1
 386 152 374 149 363 149 c 0
 344 149 335 159 335 176 c 0
 336 196 349 212 360 212 c 0
 405 212 437 156 437 108 c 0
 437 69 419 41 396 21 c 0
 382 8 364 0 345 0 c 0
 325 0 299 7 279 21 c 1
 233 57 l 1
 233 -51 l 1
 203 -51 l 1
 203 80 l 1
 111 151 l 1
 92 164 79 173 64 173 c 0
 35 173 14 142 14 103 c 0
 14 74 20 60 35 49 c 1
 50 58 63 61 74 61 c 0
 92 61 102 51 102 32 c 0
 102 11 93 -1 77 -3 c 0
EndSplineSet
Validated: 1
EndChar

StartChar: uniE56C
Encoding: 113 58732 113
Width: 580
Flags: W
HStem: 0 224
LayerCount: 2
Fore
SplineSet
34 46 m 13
 13 71 l 5
 155 224 l 5
 256 100 l 5
 376 224 l 5
 482 100 l 5
 559 184 l 13
 581 161 l 5
 435 0 l 5
 330 124 l 5
 214 0 l 5
 109 124 l 5
 34 46 l 13
EndSplineSet
Validated: 1
EndChar

StartChar: uniE56D
Encoding: 114 58733 114
Width: 580
Flags: W
HStem: -53 326<278 305> 0 21G<197.065 232.286 418.065 453.137>
VStem: 278 27<-53 70 150 273>
LayerCount: 2
Fore
SplineSet
278 70 m 1xa0
 214 0 l 1x60
 109 124 l 1
 34 46 l 9
 13 71 l 1
 155 224 l 1
 256 100 l 1
 278 123 l 9
 278 273 l 25
 305 273 l 25xa0
 306 150 l 1
 376 224 l 1
 482 100 l 1
 561 185 l 9
 581 161 l 1
 435 0 l 1x60
 330 124 l 1
 305 97 l 9
 305 -53 l 25
 278 -53 l 25
 278 70 l 1xa0
EndSplineSet
Validated: 1
EndChar

StartChar: uniE582
Encoding: 115 58754 115
Width: 280
Flags: HMW
LayerCount: 2
Fore
SplineSet
123 0 m 25
 123 123 l 25
 0 123 l 25
 0 157 l 25
 123 157 l 25
 123 280 l 25
 157 280 l 25
 157 157 l 25
 280 157 l 25
 280 123 l 25
 157 123 l 25
 157 0 l 25
 123 0 l 25
EndSplineSet
Validated: 1
EndChar

StartChar: uniE5D0
Encoding: 116 58832 116
Width: 310
Flags: HMW
LayerCount: 2
Fore
SplineSet
0 0 m 1
 0 60 l 1
 93 79 229 114 280 370 c 1
 310 370 l 1
 310 175 152 13 0 0 c 1
EndSplineSet
Validated: 1
EndChar

StartChar: uniE5E2
Encoding: 117 58850 117
Width: 300
Flags: W
HStem: 0 62<198.921 262.211> 96 64<38.8054 112.592>
VStem: 283 16<88.1179 101.401>
LayerCount: 2
Fore
SplineSet
1 70 m 0
 14 108 35 160 95 160 c 0
 150 160 169 95 210 68 c 0
 216 64 222 62 229 62 c 0
 250 62 271 80 283 98 c 0
 288 106 302 100 299 90 c 0
 286 50 265 0 205 0 c 0
 150 0 137 65 90 92 c 0
 85 95 80 96 75 96 c 0
 55 96 32 79 17 61 c 0
 10 53 -2 61 1 70 c 0
EndSplineSet
Validated: 1
EndChar

StartChar: uniE610
Encoding: 118 58896 118
Width: 300
Flags: HMW
LayerCount: 2
Fore
SplineSet
0 0 m 25
 0 300 l 25
 300 300 l 25
 300 0 l 25
 265 0 l 25
 265 180 l 25
 35 180 l 29
 35 0 l 29
 0 0 l 25
EndSplineSet
Validated: 1
EndChar

StartChar: uniE612
Encoding: 119 58898 119
Width: 250
Flags: HMW
LayerCount: 2
Fore
SplineSet
105 0 m 29
 0 450 l 25
 40 450 l 25
 125 90 l 25
 210 450 l 25
 250 450 l 25
 145 0 l 25
 105 0 l 29
EndSplineSet
Validated: 1
EndChar

StartChar: uniE614
Encoding: 120 58900 120
Width: 200
Flags: HMW
LayerCount: 2
Fore
SplineSet
100 25 m 28
 141 25 175 59 175 100 c 28
 175 141 141 175 100 175 c 28
 59 175 25 141 25 100 c 28
 25 59 59 25 100 25 c 28
100 0 m 28
 45 0 0 45 0 100 c 28
 0 155 45 200 100 200 c 28
 155 200 200 155 200 100 c 28
 200 45 155 0 100 0 c 28
EndSplineSet
Validated: 1
EndChar

StartChar: uniE618
Encoding: 121 58904 121
Width: 280
Flags: HMW
LayerCount: 2
Fore
SplineSet
-200 0 m 1
 -200 110 -110 200 0 200 c 24
 110 200 200 110 200 0 c 1
 170 0 l 1
 170 99 99 170 0 170 c 24
 -99 170 -170 99 -170 0 c 1
 -200 0 l 1
EndSplineSet
Validated: 1
EndChar

StartChar: uniE624
Encoding: 122 58916 122
Width: 250
Flags: HMW
LayerCount: 2
Fore
SplineSet
90 120 m 0
 110 120 132 165 132 200 c 28
 132 235 110 280 90 280 c 0
 70 280 48 235 48 200 c 24
 48 165 70 120 90 120 c 0
72 0 m 25
 72 100 l 17
 37 110 0 144.818359375 0 200 c 0
 0 255 45 300 90 300 c 0
 135 300 180 255 180 200 c 0
 180 144.818359375 143 110 108 100 c 0
 108 0 l 25
 72 0 l 25
EndSplineSet
Validated: 1
EndChar

StartChar: uniE630
Encoding: 123 58928 123
Width: 200
Flags: HMW
LayerCount: 2
Fore
SplineSet
84 102 m 1
 37 109 -0 150 0 200 c 24
 0 255 45 300 100 300 c 24
 155 300 200 255 200 200 c 24
 200 150 163 109 116 102 c 1
 116 101 l 1
 116 0 l 25
 84 0 l 25
 84 101 l 1
 84 102 l 1
116 126 m 1
 149 134 175 164 175 200 c 24
 175 241 141 275 100 275 c 24
 59 275 25 241 25 200 c 24
 25 164 51 134 84 126 c 1
 84 127 l 1
 84 200 l 25
 116 200 l 25
 116 127 l 1
 116 126 l 1
EndSplineSet
Validated: 1
EndChar

StartChar: uniE650
Encoding: 124 58960 124
Width: 1037
Flags: W
HStem: -2 60<361.035 435.033 953.253 1010.82> 0 49<543.265 652.027> 286 36<514.943 580.797> 359 66<58.4784 125.129> 402 58<367.211 444.917> 607 32<177.106 261>
VStem: 0 57<406 505.924> 148 26<463.933 475.584> 200 67<410.241 442> 274.641 84.3586<205.588 329> 425 56<126.64 255.856> 452 64<466.983 558.522> 585 40<194.878 284.873> 675 60<72.5613 225.441> 887 59<79.8865 267.532> 952 60<-0.820206 56.8202>
LayerCount: 2
Fore
SplineSet
152 90 m 0x67ef
 221.394397964 119.985233688 274.64143816 164.649883528 274.64143816 208.902553279 c 0
 274.64143816 216.303422646 273.152138825 223.692769088 270 231 c 0
 252 273 185 332 185 389 c 0
 185 407 200 441 200 442 c 2
 261 607 l 1
 114 601 57 505 57 460 c 0x6fef
 57 436 69 425 89 425 c 0
 110 425 128 443 148 485 c 1
 174 472 l 1
 146 384 124 359 75 359 c 0x37ef
 35 359 0 389 0 423 c 0
 0 505 74 639 277 639 c 3
 460 639 516 565 516 503 c 0
 516 439 482 402 420 402 c 0
 384 402 344 435 320 493 c 1
 344 507 l 1
 366 469 373 460 401 460 c 0
 437 460 452 482 452 510 c 0x2fdf
 452 530 431 601 303 608 c 1
 276 542 l 2
 275 538 267 498 267 479 c 0
 267 390 359 361 359 297 c 0
 359 211 296 140 296 140 c 1
 334 114 366 63 394 63 c 0
 399 63 402.9375 62.625 406.671875 62.625 c 0
 417.875 62.625 427.25 66 458 93 c 1
 438 125 425 152 425 186 c 27
 425 226 431 247 453 276 c 0
 479 311 522 322 563 322 c 0
 599 322 625 289 625 247 c 3
 625 233 625 214 615 195 c 0
 591 148 551 110 526 90 c 1
 550 61 566 49 604 49 c 0x6fef
 630 49 675 80 675 116 c 0
 675 217 703 283 835 318 c 1
 761 420 580 491 580 509 c 2
 580 510 l 1
 835 427 946 304 946 166 c 0
 946 75 889 1 799 1 c 0
 767 1 730 7 699 58 c 1xa7ef
 672 15 633 0 603 0 c 3
 532 0 504 33 483 59 c 1
 425 9 405 -4 383 -4 c 0
 361 -4 347 9 312 50 c 1
 294 81 282 95 268 95 c 0
 246 95 227 72 207 59 c 0
 134 12 102 1 84 1 c 0
 77 1 74 4 74 8 c 0
 74 23 108 71 152 90 c 0x67ef
982 -2 m 3xa7cf
 967 -2 952 12 952 28 c 3
 952 44 967 58 982 58 c 3
 998 58 1012 44 1012 28 c 3
 1012 12 1000 -2 982 -2 c 3xa7cf
498 126 m 1
 563 185 585 210 585 247 c 0
 585 253 583 261 581 268 c 0
 577 284 568 286 555 286 c 0
 520 286 481 246 481 186 c 0x27ef
 481 159 484 151 498 126 c 1
797 40 m 1
 864 44 887 102 887 174 c 0
 887 218 870 274 846 302 c 1
 758 262 735 202 735 117 c 0
 735 73 753 50 797 40 c 1
EndSplineSet
Validated: 1
EndChar

StartChar: uniE655
Encoding: 125 58965 125
Width: 540
Flags: W
HStem: 68 93<79.5149 155.133> 182 17<220 222.173 252.655 264.303> 192 94<18.5323 100.176 375.888 460.387> 230 56<60.9363 133.273> 230 18<300.618 361.695> 274 18<213.64 227.572 256.894 258> 315 97<73.5817 155.121 322.704 406.413>
VStem: 179 23<209.875 223.47 254.181 264.625> 192 98<17.9339 97.9009 381.276 451.65> 230 18<113.95 174.519 300.936 363.797> 278 17<212.458 224.186 254.5 261>
LayerCount: 2
Fore
SplineSet
278 238 m 3xc720
 278 261 258 274 239 274 c 3
 219 274 202 261 202 238 c 3
 202 215 220 199 239 199 c 3
 260 199 278 213 278 238 c 3xc720
141 230 m 0xcb40
 94 229 95 192 64 192 c 0
 31 192 12 210 12 238 c 3
 12 264 28 286 63 286 c 0xa340
 92 286 97 250 142 247 c 0
 167 249 179 259 179 272 c 0
 179 280 175 289 167 296 c 0
 151 311 136 315 123 315 c 0
 81 315 66 340 66 363 c 0
 66 387 82 412 114 412 c 0
 125 412 137 408 148 400 c 1
 173 374 145 345 182 305 c 0
 189 297 201 292 211 292 c 0
 222 292 231 299 231 316 c 0
 231 321 231 329 230 337 c 0
 226 381 189 382 189 414 c 0
 189 446 214 463 239 463 c 3
 261 463 284 445 284 414 c 0
 284 378 249 384 248 337 c 0
 248 315 253 295 270 295 c 0
 278 295 289 299 299 311 c 0
 331 347 302 369 330 401 c 0
 338 410 358 415 368 415 c 0
 393 415 417 396 417 368 c 0
 417 347 398 316 372 316 c 0
 337 316 328 314 311 299 c 0
 301 290 295 278 295 270 c 0
 295 258 306 248 328 248 c 0x8f60
 378 248 379 287 412 287 c 0
 453 287 467 261 467 238 c 3
 467 213 448 192 413 192 c 0xa360
 381 192 378 230 339 230 c 0
 308 230 298 226 298 212 c 0
 298 198 299 189 309 180 c 0
 346 147 369 173 398 148 c 0
 409 138 412 123 412 110 c 0
 412 86 396 64 364 64 c 0
 352 64 339 68 325 78 c 0
 299 103 328 128 293 167 c 0
 284 175 275 182 266 182 c 0
 256 182 248 173 248 151 c 0xcb60
 248 95 290 96 290 54 c 3
 290 25 261 10 239 10 c 3
 216 10 192 29 192 54 c 3xca80
 192 92 230 100 230 144 c 0
 230 171 220 180 207 180 c 0
 196 180 189 175 180 166 c 0
 145 130 176 100 142 75 c 1
 132 71 122 68 112 68 c 0
 87 68 66 82 66 110 c 0
 66 123 68 136 79 148 c 0
 90 160 100 161 113 161 c 0
 135 161 150 163 166 179 c 0
 173 186 179 196 179 204 c 0
 179 219 166 230 141 230 c 0xcb40
EndSplineSet
Validated: 1
EndChar

StartChar: uniE910
Encoding: 126 59664 126
Width: 500
Flags: HMW
LayerCount: 2
Fore
SplineSet
45 0 m 28
 45 -113 137 -205 250 -205 c 28
 363 -205 455 -113 455 0 c 28
 455 113 363 205 250 205 c 28
 137 205 45 113 45 0 c 28
0 0 m 28
 0 139 111 250 250 250 c 28
 388 250 500 139 500 0 c 28
 500 -138 389 -250 250 -250 c 28
 112 -250 0 -138 0 0 c 28
250 -60 m 7
 217 -60 190 -33 190 0 c 7
 190 33 217 60 250 60 c 7
 283 60 310 33 310 0 c 7
 310 -33 283 -60 250 -60 c 7
EndSplineSet
Validated: 1
EndChar

StartChar: uniE911
Encoding: 127 59665 127
Width: 500
Flags: HMW
LayerCount: 2
Fore
SplineSet
45 0 m 24
 45 -113 137 -205 250 -205 c 24
 363 -205 455 -113 455 0 c 24
 455 113 363 205 250 205 c 24
 137 205 45 113 45 0 c 24
0 0 m 24
 0 139 111 250 250 250 c 24
 388 250 500 139 500 0 c 24
 500 -138 389 -250 250 -250 c 24
 112 -250 0 -138 0 0 c 24
EndSplineSet
Validated: 1
EndChar

StartChar: uniE912
Encoding: 128 59666 128
Width: 500
Flags: HMW
LayerCount: 2
Fore
SplineSet
228 350 m 5
 273 350 l 5
 273 250 l 5
 400 237 500 131 500 0 c 4
 500 -130 401 -237 273 -250 c 5
 273 -350 l 5
 228 -350 l 5
 228 -249 l 5
 100 -238 0 -131 0 0 c 4
 0 132 99 238 228 249 c 5
 228 350 l 5
228 -204 m 5
 228 204 l 5
 125 193 45 106 45 0 c 4
 45 -106 125 -193 228 -204 c 5
273 -204 m 5
 375 -193 455 -105 455 0 c 4
 455 105 375 193 273 204 c 5
 273 -204 l 5
EndSplineSet
Validated: 1
EndChar

StartChar: uniE914
Encoding: 129 59668 129
Width: 500
Flags: HMW
LayerCount: 2
Fore
SplineSet
463 130 m 0
 464 127 465 123 465 120 c 0
 465 112 461 103 454 99 c 0
 451 97 447 96 443 96 c 0
 435 96 427 100 420 110 c 1
 386 173 323 205 250 205 c 8
 137 205 45 113 45 0 c 24
 45 -113 137 -205 250 -205 c 16
 330 -205 386 -174 420 -110 c 0
 424 -102 434 -97 444 -97 c 0
 448 -97 451 -97 454 -99 c 0
 462 -104 466 -111 466 -118 c 0
 466 -122 465 -126 463 -130 c 0
 420 -211 350 -250 250 -250 c 8
 112 -250 0 -138 0 0 c 24
 0 139 111 250 250 250 c 0
 344 250 420 210 463 130 c 0
250 -60 m 3
 217 -60 190 -33 190 0 c 3
 190 33 217 60 250 60 c 3
 283 60 310 33 310 0 c 3
 310 -33 283 -60 250 -60 c 3
EndSplineSet
Validated: 1
EndChar

StartChar: uniE915
Encoding: 130 59669 130
Width: 500
Flags: HMW
LayerCount: 2
Fore
SplineSet
463 130 m 0
 464 127 465 123 465 120 c 0
 465 112 461 103 454 99 c 0
 451 97 447 96 443 96 c 0
 435 96 427 100 420 110 c 1
 386 173 323 205 250 205 c 8
 137 205 45 113 45 0 c 24
 45 -113 137 -205 250 -205 c 16
 330 -205 386 -174 420 -110 c 0
 424 -102 434 -97 444 -97 c 0
 448 -97 451 -97 454 -99 c 0
 462 -104 466 -111 466 -118 c 0
 466 -122 465 -126 463 -130 c 0
 420 -211 350 -250 250 -250 c 8
 112 -250 0 -138 0 0 c 24
 0 139 111 250 250 250 c 0
 344 250 420 210 463 130 c 0
EndSplineSet
Validated: 1
EndChar

StartChar: uniE918
Encoding: 131 59672 131
Width: 500
Flags: HMW
LayerCount: 2
Fore
SplineSet
273 249 m 1
 356 243 424 203 463 130 c 0
 464 127 465 123 465 120 c 0
 465 112 461 103 454 99 c 0
 451 97 447 96 443 96 c 0
 435 96 427 100 420 110 c 0
 390 166 336 198 273 204 c 1
 273 -204 l 1
 341 -199 389 -168 420 -110 c 0
 424 -102 434 -97 444 -97 c 0
 448 -97 451 -97 454 -99 c 0
 462 -104 466 -111 466 -118 c 0
 466 -122 465 -126 463 -130 c 0
 423 -205 361 -244 273 -249 c 1
 273 -350 l 1
 228 -350 l 1
 228 -249 l 1
 100 -238 0 -131 0 0 c 0
 0 132 99 238 228 249 c 1
 228 350 l 1
 273 350 l 1
 273 249 l 1
228 -204 m 1
 228 204 l 1
 125 193 45 106 45 0 c 0
 45 -106 125 -193 228 -204 c 1
EndSplineSet
Validated: 1
EndChar

StartChar: uniE920
Encoding: 132 59680 132
Width: 120
Flags: HMW
LayerCount: 2
Fore
SplineSet
60 -60 m 3
 27 -60 0 -33 0 0 c 3
 0 33 27 60 60 60 c 3
 93 60 120 33 120 0 c 3
 120 -33 93 -60 60 -60 c 3
EndSplineSet
Validated: 1
EndChar

StartChar: uniE925
Encoding: 133 59685 133
Width: 45
Flags: HMW
LayerCount: 2
Fore
SplineSet
45 350 m 9
 45 -350 l 1
 0 -350 l 9
 0 350 l 1
 45 350 l 9
EndSplineSet
Validated: 1
EndChar

StartChar: uniE95D
Encoding: 134 59741 134
Width: 540
Flags: HMW
LayerCount: 2
Fore
SplineSet
30 70 m 25
 30 -70 l 25
 300 -70 l 25
 300 70 l 25
 30 70 l 25
0 190 m 25
 30 190 l 25
 30 140 l 25
 300 140 l 25
 300 190 l 25
 330 190 l 1
 330 -750 l 29
 300 -750 l 5
 300 -140 l 1
 30 -140 l 25
 30 -190 l 25
 0 -190 l 25
 0 190 l 25
EndSplineSet
Validated: 1
EndChar

StartChar: uniEA02
Encoding: 135 59906 135
Width: 250
Flags: HMW
LayerCount: 2
Fore
SplineSet
0 65 m 25
 137 250 l 25
 221 135 l 25
 307 250 l 25
 389 137 l 1
 564 370 l 1
 598 348 l 1
 338 0 l 1
 254 116 l 25
 168 0 l 25
 85 112 l 25
 32 41 l 25
 0 65 l 25
EndSplineSet
Validated: 1
EndChar

StartChar: uniEAA4
Encoding: 136 60068 136
Width: 250
Flags: HMW
LayerCount: 2
Fore
SplineSet
0 270 m 0
 30 300 45 311 85 311 c 0
 125 311 170 250 210 250 c 0
 222 250 230 250 250 270 c 0
 252 272 256 273 260 273 c 0
 266 273 274 273 274 266 c 0
 274 259 266 246 250 230 c 0
 220 200 205 189 165 189 c 0
 125 189 80 250 40 250 c 0
 28 250 20 250 0 230 c 0
 -2 228 -7 226 -11 226 c 0
 -17 226 -24 227 -24 234 c 0
 -24 241 -17 253 0 270 c 0
EndSplineSet
Validated: 1
EndChar

StartChar: uniECA2
Encoding: 137 60578 137
Width: 450
Flags: HMW
LayerCount: 2
Fore
SplineSet
337 -20 m 4
 337 50 264 111 193 111 c 4
 154 111 109 85 109 41 c 4
 109 -30 186 -87 257 -87 c 4
 298 -87 337 -65 337 -20 c 4
450 10 m 4
 450 -60 361 -119 225 -119 c 4
 89 -119 0 -60 0 10 c 4
 0 80 89 139 225 139 c 4
 361 139 450 80 450 10 c 4
EndSplineSet
Validated: 1
EndChar

StartChar: uniECA3
Encoding: 138 60579 138
Width: 328
Flags: HMW
LayerCount: 2
Fore
SplineSet
292 68 m 0
 283 84 264 91 242 91 c 0
 164 91 31 10 31 -49 c 0
 31 -56 33 -62 37 -68 c 0
 45 -84 64 -91 86 -91 c 0
 164 -91 297 -10 297 49 c 0
 297 56 295 62 292 68 c 0
299 680 m 1
 328 680 l 1
 328 22 l 2
 328 -70 223 -148 130 -148 c 0
 83 -148 40 -128 15 -81 c 0
 5 -61 0 -41 0 -22 c 0
 0 70 105 148 198 148 c 0
 237 148 273 134 298 103 c 1
 299 680 l 1
EndSplineSet
Validated: 1
EndChar

StartChar: uniECA5
Encoding: 139 60581 139
Width: 320
Flags: HMW
LayerCount: 2
Fore
SplineSet
290 680 m 1
 320 680 l 1
 320 40 l 2
 320 -51 231 -135 110 -135 c 0
 40 -135 0 -90 0 -40 c 0
 0 50 90 135 210 135 c 0
 244 135 271 124 290 107 c 1
 290 680 l 1
EndSplineSet
Validated: 1
EndChar

StartChar: uniECA7
Encoding: 140 60583 140
Width: 522
Flags: HMW
LayerCount: 2
Fore
SplineSet
320 441 m 1
 320 40 l 2
 320 -51 231 -135 110 -135 c 0
 40 -135 0 -90 0 -40 c 0
 0 50 90 135 210 135 c 0
 244 135 271 124 290 107 c 1
 290 441 l 1
 290 680 l 1
 320 680 l 1
 341 485 522 459 522 196 c 0
 522 137 505 85 472 10 c 1
 485 57 490 104 490 148 c 0
 490 258 462 396 320 441 c 1
EndSplineSet
Validated: 1
EndChar

StartChar: uniECA9
Encoding: 141 60585 141
Width: 522
Flags: HMW
LayerCount: 2
Fore
SplineSet
290 107 m 1
 290 337 l 1
 290 680 l 1
 320 680 l 1
 352 547 522 491 522 309 c 0
 522 282 514 253 501 222 c 1
 513 196 523 168 523 138 c 0
 523 104 510 67 489 27 c 1
 493 47 494 67 494 85 c 0
 494 219 390 338 320 338 c 1
 320 40 l 2
 320 -51 231 -135 110 -135 c 0
 40 -135 0 -90 0 -40 c 0
 0 50 90 135 210 135 c 0
 244 135 271 124 290 107 c 1
320 509 m 1
 346 402 429 361 494 235 c 1
 494 242 495 248 495 255 c 0
 495 388 391 509 320 509 c 1
EndSplineSet
Validated: 1
EndChar

StartChar: uniECB7
Encoding: 142 60599 142
Width: 100
Flags: HMW
LayerCount: 2
Fore
SplineSet
50 -50 m 3
 22 -50 0 -28 0 0 c 3
 0 28 22 50 50 50 c 3
 78 50 100 28 100 0 c 3
 100 -28 78 -50 50 -50 c 3
EndSplineSet
EndChar
